<svg xmlns="http://www.w3.org/2000/svg" width="1030" height="354" viewBox="0 0 1030 354">
  <g id="Grupo_157506" data-name="Grupo 157506" transform="translate(-285 -1433)">
    <g id="Grupo_156863" data-name="Grupo 156863" transform="translate(0 -1.436)">
      <path id="Rectángulo_44550" data-name="Rectángulo 44550" d="M30,0h970a30,30,0,0,1,30,30V297a0,0,0,0,1,0,0H0a0,0,0,0,1,0,0V30A30,30,0,0,1,30,0Z" transform="translate(285 1434.436)" fill="#f3f9ff"/>
      <rect id="Rectángulo_44670" data-name="Rectángulo 44670" width="1030" height="57" transform="translate(285 1731.436)" fill="#fff"/>
    </g>
    <path id="Trazado_600162" data-name="Trazado 600162" d="M47.241,14.838H41.616v3.809h6.6V21H38.687V6.781H48.2V9.154H41.616v3.389h5.625Zm5.889-7v2.6h1.807V12.5H53.13v5.273a1.259,1.259,0,0,0,.225.84,1.128,1.128,0,0,0,.859.254,4.5,4.5,0,0,0,.83-.068v2.139a5.81,5.81,0,0,1-1.709.254q-2.969,0-3.027-3V12.5H48.765v-2.07h1.543v-2.6ZM62.632,21a3.134,3.134,0,0,1-.283-.947A3.415,3.415,0,0,1,59.683,21.2a3.752,3.752,0,0,1-2.573-.9,2.89,2.89,0,0,1-1.021-2.266,2.986,2.986,0,0,1,1.245-2.578,6.144,6.144,0,0,1,3.6-.908h1.3v-.605a1.741,1.741,0,0,0-.376-1.172,1.479,1.479,0,0,0-1.187-.439,1.682,1.682,0,0,0-1.118.342,1.161,1.161,0,0,0-.405.938H56.323a2.835,2.835,0,0,1,.566-1.7,3.744,3.744,0,0,1,1.6-1.226,5.837,5.837,0,0,1,2.324-.444,4.611,4.611,0,0,1,3.1.981,3.433,3.433,0,0,1,1.147,2.759v4.58a5.052,5.052,0,0,0,.42,2.275V21ZM60.3,19.037a2.431,2.431,0,0,0,1.152-.278,1.828,1.828,0,0,0,.781-.747V16.2H61.177q-2.119,0-2.256,1.465l-.01.166a1.13,1.13,0,0,0,.371.869A1.441,1.441,0,0,0,60.3,19.037Zm16.445-3.223a6.337,6.337,0,0,1-1.108,3.911,3.554,3.554,0,0,1-2.993,1.47,3.292,3.292,0,0,1-2.588-1.113v4.98H67.231V10.434h2.617l.1,1.035a3.317,3.317,0,0,1,2.676-1.23,3.578,3.578,0,0,1,3.037,1.445,6.509,6.509,0,0,1,1.084,3.984Zm-2.822-.205a4.159,4.159,0,0,0-.522-2.275,1.7,1.7,0,0,0-1.519-.8,1.848,1.848,0,0,0-1.826,1.016v4.326A1.879,1.879,0,0,0,71.9,18.92Q73.921,18.92,73.921,15.609ZM84.614,21a3.134,3.134,0,0,1-.283-.947A3.415,3.415,0,0,1,81.665,21.2a3.752,3.752,0,0,1-2.573-.9,2.89,2.89,0,0,1-1.021-2.266,2.986,2.986,0,0,1,1.245-2.578,6.144,6.144,0,0,1,3.6-.908h1.3v-.605a1.741,1.741,0,0,0-.376-1.172,1.479,1.479,0,0,0-1.187-.439,1.682,1.682,0,0,0-1.118.342,1.161,1.161,0,0,0-.405.938H78.306a2.835,2.835,0,0,1,.566-1.7,3.744,3.744,0,0,1,1.6-1.226,5.837,5.837,0,0,1,2.324-.444,4.611,4.611,0,0,1,3.1.981,3.433,3.433,0,0,1,1.147,2.759v4.58a5.052,5.052,0,0,0,.42,2.275V21ZM82.28,19.037a2.431,2.431,0,0,0,1.152-.278,1.828,1.828,0,0,0,.781-.747V16.2H83.159q-2.119,0-2.256,1.465l-.01.166a1.13,1.13,0,0,0,.371.869A1.441,1.441,0,0,0,82.28,19.037Zm12.656-.957a.909.909,0,0,0-.513-.815,5.824,5.824,0,0,0-1.646-.532q-3.77-.791-3.77-3.2a2.9,2.9,0,0,1,1.167-2.349,4.708,4.708,0,0,1,3.052-.942,5.067,5.067,0,0,1,3.218.947,2.985,2.985,0,0,1,1.206,2.461H94.829a1.366,1.366,0,0,0-.391-1,1.653,1.653,0,0,0-1.221-.4,1.689,1.689,0,0,0-1.1.322,1.017,1.017,0,0,0-.391.82.87.87,0,0,0,.444.757,4.571,4.571,0,0,0,1.5.5,12.244,12.244,0,0,1,1.777.474,2.92,2.92,0,0,1,2.236,2.842A2.756,2.756,0,0,1,96.44,20.3a5.35,5.35,0,0,1-3.2.894,5.588,5.588,0,0,1-2.358-.474,3.957,3.957,0,0,1-1.616-1.3,3.018,3.018,0,0,1-.586-1.782h2.676a1.473,1.473,0,0,0,.557,1.152,2.208,2.208,0,0,0,1.387.4,2.044,2.044,0,0,0,1.226-.308A.957.957,0,0,0,94.937,18.08Zm9.1-2.441a6.368,6.368,0,0,1,1.108-3.936,3.6,3.6,0,0,1,3.032-1.465,3.236,3.236,0,0,1,2.549,1.152V6h2.832V21h-2.549l-.137-1.123a3.321,3.321,0,0,1-2.715,1.318,3.587,3.587,0,0,1-2.993-1.47A6.573,6.573,0,0,1,104.038,15.639Zm2.822.21a4.171,4.171,0,0,0,.518,2.279,1.686,1.686,0,0,0,1.5.792,1.888,1.888,0,0,0,1.846-1.105V13.638a1.861,1.861,0,0,0-1.826-1.105Q106.86,12.533,106.86,15.849ZM120.61,21.2a5.187,5.187,0,0,1-3.784-1.426,5.068,5.068,0,0,1-1.46-3.8V15.7a6.383,6.383,0,0,1,.615-2.847,4.515,4.515,0,0,1,1.743-1.934,4.893,4.893,0,0,1,2.573-.679,4.385,4.385,0,0,1,3.413,1.367,5.555,5.555,0,0,1,1.245,3.877v1.152h-6.729a2.622,2.622,0,0,0,.825,1.66,2.5,2.5,0,0,0,1.743.625,3.046,3.046,0,0,0,2.549-1.182l1.387,1.553a4.237,4.237,0,0,1-1.719,1.4A5.639,5.639,0,0,1,120.61,21.2Zm-.322-8.682a1.764,1.764,0,0,0-1.362.569,2.946,2.946,0,0,0-.669,1.628h3.926v-.226a2.1,2.1,0,0,0-.508-1.457A1.819,1.819,0,0,0,120.288,12.514ZM134.517,21h-2.832V6h2.832Zm8.447,0a3.134,3.134,0,0,1-.283-.947,3.415,3.415,0,0,1-2.666,1.143,3.752,3.752,0,0,1-2.573-.9,2.889,2.889,0,0,1-1.021-2.266,2.986,2.986,0,0,1,1.245-2.578,6.144,6.144,0,0,1,3.6-.908h1.3v-.605a1.741,1.741,0,0,0-.376-1.172A1.479,1.479,0,0,0,141,12.328a1.682,1.682,0,0,0-1.118.342,1.161,1.161,0,0,0-.405.938h-2.822a2.835,2.835,0,0,1,.566-1.7,3.744,3.744,0,0,1,1.6-1.226,5.837,5.837,0,0,1,2.324-.444,4.611,4.611,0,0,1,3.1.981,3.433,3.433,0,0,1,1.147,2.759v4.58a5.052,5.052,0,0,0,.42,2.275V21Zm-2.334-1.963a2.431,2.431,0,0,0,1.152-.278,1.828,1.828,0,0,0,.781-.747V16.2h-1.055q-2.119,0-2.256,1.465l-.01.166a1.13,1.13,0,0,0,.371.869A1.441,1.441,0,0,0,140.63,19.037ZM155.522,21H152.69V10.434h2.832Zm-3-13.3a1.39,1.39,0,0,1,.425-1.045,1.831,1.831,0,0,1,2.31,0,1.382,1.382,0,0,1,.43,1.045,1.386,1.386,0,0,1-.435,1.055,1.81,1.81,0,0,1-2.295,0A1.386,1.386,0,0,1,152.524,7.7Zm7.92,2.734.088,1.221a3.689,3.689,0,0,1,3.037-1.416,3.066,3.066,0,0,1,2.5.986,4.6,4.6,0,0,1,.84,2.949V21h-2.822V14.242a1.831,1.831,0,0,0-.391-1.3,1.749,1.749,0,0,0-1.3-.405,1.942,1.942,0,0,0-1.787,1.016V21h-2.822V10.434Zm8.193,5.205a6.193,6.193,0,0,1,1.157-3.916,3.75,3.75,0,0,1,3.12-1.484,3.289,3.289,0,0,1,2.705,1.191l.117-1H178.3V20.648a4.516,4.516,0,0,1-.63,2.412,4.045,4.045,0,0,1-1.772,1.563,6.231,6.231,0,0,1-2.676.537,5.794,5.794,0,0,1-2.266-.464,4.021,4.021,0,0,1-1.67-1.2l1.25-1.719a3.306,3.306,0,0,0,2.559,1.182,2.42,2.42,0,0,0,1.748-.6,2.253,2.253,0,0,0,.625-1.7v-.566a3.264,3.264,0,0,1-2.568,1.1,3.74,3.74,0,0,1-3.081-1.489,6.191,6.191,0,0,1-1.177-3.95Zm2.822.21a3.856,3.856,0,0,0,.576,2.254,1.833,1.833,0,0,0,1.582.817,1.96,1.96,0,0,0,1.846-.968V13.5a1.955,1.955,0,0,0-1.826-.968,1.844,1.844,0,0,0-1.6.831A4.346,4.346,0,0,0,171.46,15.849ZM185.327,21.2a5.187,5.187,0,0,1-3.784-1.426,5.068,5.068,0,0,1-1.46-3.8V15.7a6.383,6.383,0,0,1,.615-2.847,4.515,4.515,0,0,1,1.743-1.934,4.893,4.893,0,0,1,2.573-.679,4.385,4.385,0,0,1,3.413,1.367,5.555,5.555,0,0,1,1.245,3.877v1.152h-6.729a2.622,2.622,0,0,0,.825,1.66,2.5,2.5,0,0,0,1.743.625,3.046,3.046,0,0,0,2.549-1.182l1.387,1.553a4.237,4.237,0,0,1-1.719,1.4A5.639,5.639,0,0,1,185.327,21.2ZM185,12.514a1.764,1.764,0,0,0-1.362.569,2.946,2.946,0,0,0-.669,1.628H186.9v-.226a2.1,2.1,0,0,0-.508-1.457A1.819,1.819,0,0,0,185,12.514Zm8.867-2.08.088,1.221A3.689,3.689,0,0,1,197,10.238a3.066,3.066,0,0,1,2.5.986,4.6,4.6,0,0,1,.84,2.949V21h-2.822V14.242a1.831,1.831,0,0,0-.391-1.3,1.749,1.749,0,0,0-1.3-.405,1.942,1.942,0,0,0-1.787,1.016V21h-2.822V10.434ZM205.454,21h-2.832V10.434h2.832Zm-3-13.3a1.39,1.39,0,0,1,.425-1.045,1.831,1.831,0,0,1,2.31,0,1.382,1.382,0,0,1,.43,1.045,1.386,1.386,0,0,1-.435,1.055,1.81,1.81,0,0,1-2.295,0A1.386,1.386,0,0,1,202.456,7.7Zm10.186,13.5a5.187,5.187,0,0,1-3.784-1.426,5.068,5.068,0,0,1-1.46-3.8V15.7a6.383,6.383,0,0,1,.615-2.847,4.515,4.515,0,0,1,1.743-1.934,4.893,4.893,0,0,1,2.573-.679,4.385,4.385,0,0,1,3.413,1.367,5.555,5.555,0,0,1,1.245,3.877v1.152h-6.729a2.622,2.622,0,0,0,.825,1.66,2.5,2.5,0,0,0,1.743.625,3.046,3.046,0,0,0,2.549-1.182l1.387,1.553a4.237,4.237,0,0,1-1.719,1.4A5.639,5.639,0,0,1,212.642,21.2Zm-.322-8.682a1.764,1.764,0,0,0-1.362.569,2.946,2.946,0,0,0-.669,1.628h3.926v-.226a2.1,2.1,0,0,0-.508-1.457A1.819,1.819,0,0,0,212.319,12.514Zm12.207.566A7.667,7.667,0,0,0,223.511,13a2.067,2.067,0,0,0-2.1,1.084V21h-2.822V10.434h2.666l.078,1.26a2.615,2.615,0,0,1,2.354-1.455,2.957,2.957,0,0,1,.879.127Zm4.4,7.92h-2.822V10.434h2.822ZM228.1,6.146h3.076l-2.705,3.027h-2.295ZM237.485,21a3.134,3.134,0,0,1-.283-.947,3.415,3.415,0,0,1-2.666,1.143,3.752,3.752,0,0,1-2.573-.9,2.889,2.889,0,0,1-1.021-2.266,2.986,2.986,0,0,1,1.245-2.578,6.144,6.144,0,0,1,3.6-.908h1.3v-.605a1.741,1.741,0,0,0-.376-1.172,1.479,1.479,0,0,0-1.187-.439,1.682,1.682,0,0,0-1.118.342,1.161,1.161,0,0,0-.405.938h-2.822a2.835,2.835,0,0,1,.566-1.7,3.744,3.744,0,0,1,1.6-1.226,5.837,5.837,0,0,1,2.324-.444,4.611,4.611,0,0,1,3.1.981,3.433,3.433,0,0,1,1.147,2.759v4.58a5.052,5.052,0,0,0,.42,2.275V21Zm-2.334-1.963a2.431,2.431,0,0,0,1.152-.278,1.828,1.828,0,0,0,.781-.747V16.2H236.03q-2.119,0-2.256,1.465l-.01.166a1.13,1.13,0,0,0,.371.869A1.441,1.441,0,0,0,235.151,19.037Zm11.475-3.4a6.368,6.368,0,0,1,1.108-3.936,3.6,3.6,0,0,1,3.032-1.465,3.236,3.236,0,0,1,2.549,1.152V6h2.832V21H253.6l-.137-1.123a3.321,3.321,0,0,1-2.715,1.318,3.587,3.587,0,0,1-2.993-1.47A6.573,6.573,0,0,1,246.626,15.639Zm2.822.21a4.171,4.171,0,0,0,.518,2.279,1.686,1.686,0,0,0,1.5.792,1.888,1.888,0,0,0,1.846-1.105V13.638a1.861,1.861,0,0,0-1.826-1.105Q249.448,12.533,249.448,15.849ZM263.2,21.2a5.187,5.187,0,0,1-3.784-1.426,5.068,5.068,0,0,1-1.46-3.8V15.7a6.383,6.383,0,0,1,.615-2.847,4.515,4.515,0,0,1,1.743-1.934,4.893,4.893,0,0,1,2.573-.679,4.385,4.385,0,0,1,3.413,1.367,5.555,5.555,0,0,1,1.245,3.877v1.152h-6.729a2.622,2.622,0,0,0,.825,1.66,2.5,2.5,0,0,0,1.743.625,3.046,3.046,0,0,0,2.549-1.182l1.387,1.553a4.237,4.237,0,0,1-1.719,1.4A5.639,5.639,0,0,1,263.2,21.2Zm-.322-8.682a1.764,1.764,0,0,0-1.362.569,2.946,2.946,0,0,0-.669,1.628h3.926v-.226a2.1,2.1,0,0,0-.508-1.457A1.819,1.819,0,0,0,262.876,12.514Zm17.188.566A7.668,7.668,0,0,0,279.048,13a2.067,2.067,0,0,0-2.1,1.084V21h-2.822V10.434h2.666l.078,1.26a2.615,2.615,0,0,1,2.354-1.455,2.957,2.957,0,0,1,.879.127Zm6.221,8.115A5.187,5.187,0,0,1,282.5,19.77a5.068,5.068,0,0,1-1.46-3.8V15.7a6.383,6.383,0,0,1,.615-2.847,4.515,4.515,0,0,1,1.743-1.934,4.893,4.893,0,0,1,2.573-.679,4.385,4.385,0,0,1,3.413,1.367,5.555,5.555,0,0,1,1.245,3.877v1.152H283.9a2.622,2.622,0,0,0,.825,1.66,2.5,2.5,0,0,0,1.743.625,3.046,3.046,0,0,0,2.549-1.182l1.387,1.553a4.237,4.237,0,0,1-1.719,1.4A5.639,5.639,0,0,1,286.284,21.2Zm-.322-8.682a1.764,1.764,0,0,0-1.362.569,2.946,2.946,0,0,0-.669,1.628h3.926v-.226a2.1,2.1,0,0,0-.508-1.457A1.819,1.819,0,0,0,285.962,12.514Zm5.83,3.105a6.316,6.316,0,0,1,1.108-3.936,3.624,3.624,0,0,1,3.042-1.445,3.244,3.244,0,0,1,2.705,1.3l.186-1.1h2.48V25.063h-2.832V20.092a3.253,3.253,0,0,1-2.559,1.1,3.6,3.6,0,0,1-3.008-1.465A6.626,6.626,0,0,1,291.792,15.619Zm2.822.2a4.143,4.143,0,0,0,.532,2.308,1.7,1.7,0,0,0,1.5.792,1.9,1.9,0,0,0,1.836-1.037V13.511a1.882,1.882,0,0,0-1.816-1,1.725,1.725,0,0,0-1.514.792A4.576,4.576,0,0,0,294.614,15.819Zm15.244,4.106a3.539,3.539,0,0,1-2.891,1.27,3.338,3.338,0,0,1-2.593-.977,4.169,4.169,0,0,1-.913-2.861V10.434h2.822v6.834q0,1.652,1.5,1.652a2.038,2.038,0,0,0,1.973-1V10.434h2.832V21h-2.656ZM317.7,21h-2.832V10.434H317.7Zm-3-13.3a1.39,1.39,0,0,1,.425-1.045,1.831,1.831,0,0,1,2.31,0,1.382,1.382,0,0,1,.43,1.045,1.386,1.386,0,0,1-.435,1.055,1.81,1.81,0,0,1-2.295,0A1.386,1.386,0,0,1,314.7,7.7ZM325.747,18.08a.909.909,0,0,0-.513-.815,5.824,5.824,0,0,0-1.646-.532q-3.77-.791-3.77-3.2a2.9,2.9,0,0,1,1.167-2.349,4.708,4.708,0,0,1,3.052-.942,5.067,5.067,0,0,1,3.218.947,2.985,2.985,0,0,1,1.206,2.461H325.64a1.366,1.366,0,0,0-.391-1,1.653,1.653,0,0,0-1.221-.4,1.689,1.689,0,0,0-1.1.322,1.017,1.017,0,0,0-.391.82.87.87,0,0,0,.444.757,4.571,4.571,0,0,0,1.5.5,12.244,12.244,0,0,1,1.777.474,2.92,2.92,0,0,1,2.236,2.842,2.756,2.756,0,0,1-1.24,2.339,5.35,5.35,0,0,1-3.2.894,5.588,5.588,0,0,1-2.358-.474,3.957,3.957,0,0,1-1.616-1.3,3.018,3.018,0,0,1-.586-1.782h2.676a1.473,1.473,0,0,0,.557,1.152,2.208,2.208,0,0,0,1.387.4,2.044,2.044,0,0,0,1.226-.308A.957.957,0,0,0,325.747,18.08ZM333.286,21h-2.832V10.434h2.832Zm-3-13.3a1.39,1.39,0,0,1,.425-1.045,1.831,1.831,0,0,1,2.31,0,1.382,1.382,0,0,1,.43,1.045,1.386,1.386,0,0,1-.435,1.055,1.81,1.81,0,0,1-2.295,0A1.386,1.386,0,0,1,330.288,7.7Zm8.7.137v2.6H340.8V12.5h-1.807v5.273a1.259,1.259,0,0,0,.225.84,1.128,1.128,0,0,0,.859.254,4.5,4.5,0,0,0,.83-.068v2.139a5.81,5.81,0,0,1-1.709.254q-2.969,0-3.027-3V12.5h-1.543v-2.07h1.543v-2.6Zm2.646,7.783a6.266,6.266,0,0,1,.605-2.8,4.432,4.432,0,0,1,1.743-1.9,5.086,5.086,0,0,1,2.642-.674,4.812,4.812,0,0,1,3.491,1.309,5.252,5.252,0,0,1,1.509,3.555l.02.723a5.523,5.523,0,0,1-1.357,3.9,5.261,5.261,0,0,1-7.29,0,5.62,5.62,0,0,1-1.362-3.984Zm2.822.2a3.95,3.95,0,0,0,.566,2.3,2.035,2.035,0,0,0,3.223.01,4.322,4.322,0,0,0,.576-2.518,3.91,3.91,0,0,0-.576-2.289,1.873,1.873,0,0,0-1.621-.812,1.842,1.842,0,0,0-1.6.807A4.395,4.395,0,0,0,344.458,15.819Zm14.648,2.261a.909.909,0,0,0-.513-.815,5.824,5.824,0,0,0-1.646-.532q-3.77-.791-3.77-3.2a2.9,2.9,0,0,1,1.167-2.349,4.708,4.708,0,0,1,3.052-.942,5.067,5.067,0,0,1,3.218.947,2.985,2.985,0,0,1,1.206,2.461H359a1.366,1.366,0,0,0-.391-1,1.653,1.653,0,0,0-1.221-.4,1.689,1.689,0,0,0-1.1.322,1.017,1.017,0,0,0-.391.82.87.87,0,0,0,.444.757,4.571,4.571,0,0,0,1.5.5,12.244,12.244,0,0,1,1.777.474,2.92,2.92,0,0,1,2.236,2.842,2.756,2.756,0,0,1-1.24,2.339,5.35,5.35,0,0,1-3.2.894,5.588,5.588,0,0,1-2.358-.474,3.957,3.957,0,0,1-1.616-1.3,3.018,3.018,0,0,1-.586-1.782h2.676a1.473,1.473,0,0,0,.557,1.152,2.208,2.208,0,0,0,1.387.4,2.044,2.044,0,0,0,1.226-.308A.957.957,0,0,0,359.106,18.08Z" transform="translate(600 1466)" fill="#377518"/>
    <path id="Trazado_600163" data-name="Trazado 600163" d="M0,0H190V42H0Z" transform="translate(390 1513)" fill="#ffecdc"/>
    <path id="Trazado_600164" data-name="Trazado 600164" d="M0,0H190V42H0Z" transform="translate(1020 1513)" fill="#ffecdc"/>
    <path id="Trazado_600165" data-name="Trazado 600165" d="M0,0H190V42H0Z" transform="translate(390 1614)" fill="#ffecdc"/>
    <path id="Trazado_600166" data-name="Trazado 600166" d="M0,0H190V42H0Z" transform="translate(1020 1614)" fill="#ffecdc"/>
    <path id="Trazado_600167" data-name="Trazado 600167" d="M64.316,12.414H59.078V16.7h6.084V18H57.485V5.914h7.6v1.3h-6V11.11h5.238ZM68.574,18H67.039V5.25h1.536ZM72.7,18H71.164V9.019H72.7ZM71.04,6.636a.917.917,0,0,1,.228-.631.857.857,0,0,1,.677-.257.87.87,0,0,1,.681.257.907.907,0,0,1,.232.631.877.877,0,0,1-.232.623.886.886,0,0,1-.681.249.872.872,0,0,1-.677-.249A.886.886,0,0,1,71.04,6.636Zm7.72,10.276a2.212,2.212,0,0,0,1.436-.5,1.752,1.752,0,0,0,.681-1.245h1.453a2.785,2.785,0,0,1-.531,1.469,3.5,3.5,0,0,1-1.307,1.112,3.772,3.772,0,0,1-1.731.415,3.7,3.7,0,0,1-2.918-1.224,4.877,4.877,0,0,1-1.083-3.349v-.257A5.407,5.407,0,0,1,75.24,11a3.667,3.667,0,0,1,1.382-1.585,3.926,3.926,0,0,1,2.129-.564,3.6,3.6,0,0,1,2.511.9,3.234,3.234,0,0,1,1.067,2.349H80.876a2.116,2.116,0,0,0-.66-1.432,2.053,2.053,0,0,0-1.465-.56,2.149,2.149,0,0,0-1.814.843,3.957,3.957,0,0,0-.643,2.436v.291a3.878,3.878,0,0,0,.639,2.391A2.16,2.16,0,0,0,78.76,16.913ZM85.724,18H84.188V9.019h1.536ZM84.064,6.636a.917.917,0,0,1,.228-.631.857.857,0,0,1,.677-.257.87.87,0,0,1,.681.257.907.907,0,0,1,.232.631.877.877,0,0,1-.232.623.886.886,0,0,1-.681.249.872.872,0,0,1-.677-.249A.886.886,0,0,1,84.064,6.636Zm6.2.208V9.019h1.677v1.187H90.264v5.577a1.247,1.247,0,0,0,.224.81.943.943,0,0,0,.764.27,3.718,3.718,0,0,0,.73-.1V18a4.478,4.478,0,0,1-1.179.165,1.912,1.912,0,0,1-1.552-.623,2.675,2.675,0,0,1-.523-1.768v-5.57H87.094V9.019h1.635V6.844ZM99.279,18a3.226,3.226,0,0,1-.216-.946,3.426,3.426,0,0,1-2.557,1.112,3.17,3.17,0,0,1-2.179-.751,2.43,2.43,0,0,1-.851-1.905,2.539,2.539,0,0,1,1.067-2.179,5.029,5.029,0,0,1,3-.776h1.494v-.706a1.725,1.725,0,0,0-.481-1.282,1.935,1.935,0,0,0-1.419-.477,2.239,2.239,0,0,0-1.378.415,1.223,1.223,0,0,0-.556,1H93.659a2.119,2.119,0,0,1,.477-1.3,3.258,3.258,0,0,1,1.295-.992,4.356,4.356,0,0,1,1.8-.365,3.551,3.551,0,0,1,2.432.776,2.8,2.8,0,0,1,.913,2.137V15.9a5.054,5.054,0,0,0,.315,1.967V18Zm-2.548-1.17a2.7,2.7,0,0,0,1.37-.374,2.259,2.259,0,0,0,.938-.971V13.642h-1.2q-2.822,0-2.822,1.652a1.4,1.4,0,0,0,.481,1.129A1.85,1.85,0,0,0,96.731,16.83Zm9.853.083a2.212,2.212,0,0,0,1.436-.5,1.752,1.752,0,0,0,.681-1.245h1.453a2.785,2.785,0,0,1-.531,1.469,3.5,3.5,0,0,1-1.307,1.112,3.772,3.772,0,0,1-1.731.415,3.7,3.7,0,0,1-2.918-1.224,4.877,4.877,0,0,1-1.083-3.349v-.257A5.407,5.407,0,0,1,103.064,11a3.667,3.667,0,0,1,1.382-1.585,3.926,3.926,0,0,1,2.129-.564,3.6,3.6,0,0,1,2.511.9,3.234,3.234,0,0,1,1.067,2.349H108.7a2.116,2.116,0,0,0-.66-1.432,2.053,2.053,0,0,0-1.465-.56,2.149,2.149,0,0,0-1.814.843,3.957,3.957,0,0,0-.643,2.436v.291a3.878,3.878,0,0,0,.639,2.391A2.16,2.16,0,0,0,106.584,16.913ZM113.548,18h-1.536V9.019h1.536Zm-1.66-11.364a.917.917,0,0,1,.228-.631.857.857,0,0,1,.677-.257.87.87,0,0,1,.681.257.907.907,0,0,1,.232.631.877.877,0,0,1-.232.623.886.886,0,0,1-.681.249.872.872,0,0,1-.677-.249A.886.886,0,0,1,111.888,6.636Zm3.71,6.79a5.3,5.3,0,0,1,.519-2.374,3.87,3.87,0,0,1,1.444-1.627,3.932,3.932,0,0,1,2.113-.573,3.788,3.788,0,0,1,2.968,1.27,4.886,4.886,0,0,1,1.133,3.378v.108a5.351,5.351,0,0,1-.5,2.353,3.813,3.813,0,0,1-1.436,1.623,3.977,3.977,0,0,1-2.146.581,3.778,3.778,0,0,1-2.959-1.27,4.861,4.861,0,0,1-1.133-3.362Zm1.544.183a3.842,3.842,0,0,0,.693,2.4A2.349,2.349,0,0,0,121.55,16a4.2,4.2,0,0,0,.689-2.569,3.836,3.836,0,0,0-.7-2.395,2.23,2.23,0,0,0-1.864-.917,2.205,2.205,0,0,0-1.834.9A4.17,4.17,0,0,0,117.142,13.609Zm3.229-8.359h1.859l-2.225,2.44-1.237,0Zm6.782,3.769.05,1.129a3.273,3.273,0,0,1,2.689-1.295q2.847,0,2.872,3.212V18h-1.536V12.057a2.068,2.068,0,0,0-.444-1.436,1.78,1.78,0,0,0-1.357-.465,2.216,2.216,0,0,0-1.312.4,2.706,2.706,0,0,0-.88,1.046V18H125.7V9.019Z" transform="translate(390 1524)" fill="#12263f"/>
    <path id="Trazado_600168" data-name="Trazado 600168" d="M75.369,14.837H70.305L69.168,18H67.524L72.14,5.914h1.395L78.158,18H76.522Zm-4.582-1.3H74.9L72.837,7.881ZM81,9.019l.05,1.129a3.273,3.273,0,0,1,2.689-1.295q2.847,0,2.872,3.212V18H85.072V12.057a2.068,2.068,0,0,0-.444-1.436,1.78,1.78,0,0,0-1.357-.465,2.216,2.216,0,0,0-1.312.4,2.706,2.706,0,0,0-.88,1.046V18H79.544V9.019ZM94.469,18a3.226,3.226,0,0,1-.216-.946A3.426,3.426,0,0,1,91.7,18.166a3.17,3.17,0,0,1-2.179-.751,2.43,2.43,0,0,1-.851-1.905,2.539,2.539,0,0,1,1.067-2.179,5.029,5.029,0,0,1,3-.776h1.494v-.706a1.725,1.725,0,0,0-.481-1.282,1.935,1.935,0,0,0-1.419-.477,2.239,2.239,0,0,0-1.378.415,1.223,1.223,0,0,0-.556,1H88.849a2.119,2.119,0,0,1,.477-1.3,3.258,3.258,0,0,1,1.295-.992,4.356,4.356,0,0,1,1.8-.365,3.551,3.551,0,0,1,2.432.776,2.8,2.8,0,0,1,.913,2.137V15.9a5.054,5.054,0,0,0,.315,1.967V18ZM91.92,16.83a2.7,2.7,0,0,0,1.37-.374,2.259,2.259,0,0,0,.938-.971V13.642h-1.2q-2.822,0-2.822,1.652a1.4,1.4,0,0,0,.481,1.129A1.85,1.85,0,0,0,91.92,16.83ZM93.34,5.25H95.2L92.975,7.69l-1.237,0ZM99.839,18H98.3V5.25h1.536Zm4.125,0h-1.536V9.019h1.536ZM102.3,6.636a.917.917,0,0,1,.228-.631.857.857,0,0,1,.677-.257.87.87,0,0,1,.681.257.907.907,0,0,1,.232.631.877.877,0,0,1-.232.623.886.886,0,0,1-.681.249.872.872,0,0,1-.677-.249A.886.886,0,0,1,102.3,6.636Zm9.347,8.981a1.131,1.131,0,0,0-.469-.967,4.514,4.514,0,0,0-1.635-.594,7.731,7.731,0,0,1-1.851-.6,2.633,2.633,0,0,1-1.013-.83,1.986,1.986,0,0,1-.328-1.146,2.33,2.33,0,0,1,.934-1.868,3.647,3.647,0,0,1,2.386-.764,3.753,3.753,0,0,1,2.478.789,2.5,2.5,0,0,1,.95,2.017H111.56a1.386,1.386,0,0,0-.535-1.087,2.006,2.006,0,0,0-1.349-.457,2.1,2.1,0,0,0-1.312.365,1.15,1.15,0,0,0-.473.955.932.932,0,0,0,.44.838,5.413,5.413,0,0,0,1.59.54,8.283,8.283,0,0,1,1.864.614,2.718,2.718,0,0,1,1.058.859,2.112,2.112,0,0,1,.344,1.224,2.3,2.3,0,0,1-.963,1.93,4.039,4.039,0,0,1-2.5.726,4.523,4.523,0,0,1-1.909-.382,3.105,3.105,0,0,1-1.3-1.067,2.571,2.571,0,0,1-.469-1.482h1.536a1.59,1.59,0,0,0,.618,1.224,2.4,2.4,0,0,0,1.523.452,2.476,2.476,0,0,0,1.4-.353A1.084,1.084,0,0,0,111.651,15.618Zm5.2,2.382H115.32V9.019h1.536ZM115.2,6.636a.917.917,0,0,1,.228-.631.857.857,0,0,1,.677-.257.87.87,0,0,1,.681.257.907.907,0,0,1,.232.631.877.877,0,0,1-.232.623.886.886,0,0,1-.681.249.872.872,0,0,1-.677-.249A.886.886,0,0,1,115.2,6.636Zm9.347,8.981a1.131,1.131,0,0,0-.469-.967,4.514,4.514,0,0,0-1.635-.594,7.731,7.731,0,0,1-1.851-.6,2.633,2.633,0,0,1-1.013-.83,1.986,1.986,0,0,1-.328-1.146,2.33,2.33,0,0,1,.934-1.868,3.647,3.647,0,0,1,2.386-.764,3.753,3.753,0,0,1,2.478.789,2.5,2.5,0,0,1,.95,2.017h-1.544a1.386,1.386,0,0,0-.535-1.087,2.006,2.006,0,0,0-1.349-.457,2.1,2.1,0,0,0-1.312.365,1.15,1.15,0,0,0-.473.955.932.932,0,0,0,.44.838,5.413,5.413,0,0,0,1.59.54,8.283,8.283,0,0,1,1.864.614,2.718,2.718,0,0,1,1.058.859,2.112,2.112,0,0,1,.344,1.224,2.3,2.3,0,0,1-.963,1.93,4.039,4.039,0,0,1-2.5.726,4.523,4.523,0,0,1-1.909-.382,3.105,3.105,0,0,1-1.3-1.067,2.571,2.571,0,0,1-.469-1.482h1.536a1.59,1.59,0,0,0,.618,1.224,2.4,2.4,0,0,0,1.523.452,2.476,2.476,0,0,0,1.4-.353A1.084,1.084,0,0,0,124.542,15.618Z" transform="translate(390 1625)" fill="#12263f"/>
    <path id="Trazado_600169" data-name="Trazado 600169" d="M50.012,12.414H44.774V16.7h6.084V18H43.18V5.914h7.6v1.3h-6V11.11h5.238Zm7.819,3.2a1.13,1.13,0,0,0-.469-.967,4.514,4.514,0,0,0-1.635-.594,7.731,7.731,0,0,1-1.851-.6,2.633,2.633,0,0,1-1.013-.83,1.986,1.986,0,0,1-.328-1.146,2.33,2.33,0,0,1,.934-1.868,3.647,3.647,0,0,1,2.386-.764,3.753,3.753,0,0,1,2.478.789,2.5,2.5,0,0,1,.95,2.017H57.74a1.386,1.386,0,0,0-.535-1.087,2.006,2.006,0,0,0-1.349-.457,2.1,2.1,0,0,0-1.312.365,1.15,1.15,0,0,0-.473.955.932.932,0,0,0,.44.838,5.413,5.413,0,0,0,1.59.54,8.283,8.283,0,0,1,1.864.614,2.718,2.718,0,0,1,1.058.859,2.112,2.112,0,0,1,.344,1.224,2.3,2.3,0,0,1-.963,1.93,4.039,4.039,0,0,1-2.5.726A4.523,4.523,0,0,1,54,17.784a3.105,3.105,0,0,1-1.3-1.067,2.571,2.571,0,0,1-.469-1.482h1.536a1.59,1.59,0,0,0,.618,1.224,2.4,2.4,0,0,0,1.523.452,2.476,2.476,0,0,0,1.4-.353A1.084,1.084,0,0,0,57.831,15.618Zm11.123-2.009a5.378,5.378,0,0,1-.938,3.3,3.006,3.006,0,0,1-2.54,1.253A3.294,3.294,0,0,1,62.9,17.128v4.325H61.367V9.019h1.4l.075,1a3.163,3.163,0,0,1,2.606-1.162,3.063,3.063,0,0,1,2.561,1.22,5.437,5.437,0,0,1,.942,3.4Zm-1.536-.174a3.968,3.968,0,0,0-.647-2.4,2.086,2.086,0,0,0-1.776-.88A2.257,2.257,0,0,0,62.9,11.393v4.292a2.262,2.262,0,0,0,2.108,1.229,2.076,2.076,0,0,0,1.756-.876A4.332,4.332,0,0,0,67.419,13.435Zm7.213,4.731a3.924,3.924,0,0,1-2.972-1.2,4.452,4.452,0,0,1-1.146-3.208v-.282a5.39,5.39,0,0,1,.51-2.386,3.982,3.982,0,0,1,1.428-1.644,3.59,3.59,0,0,1,1.988-.594,3.364,3.364,0,0,1,2.723,1.154,5,5,0,0,1,.971,3.3v.639H72.051a3.193,3.193,0,0,0,.776,2.146,2.44,2.44,0,0,0,1.888.818,2.675,2.675,0,0,0,1.378-.332,3.462,3.462,0,0,0,.988-.88l.938.73A3.772,3.772,0,0,1,74.632,18.166Zm-.191-8.052a2.048,2.048,0,0,0-1.561.677,3.288,3.288,0,0,0-.78,1.9h4.5v-.116a2.925,2.925,0,0,0-.631-1.814A1.928,1.928,0,0,0,74.441,10.114Zm9.073,6.8a2.212,2.212,0,0,0,1.436-.5,1.752,1.752,0,0,0,.681-1.245h1.453a2.785,2.785,0,0,1-.531,1.469,3.5,3.5,0,0,1-1.307,1.112,3.772,3.772,0,0,1-1.731.415A3.7,3.7,0,0,1,80.6,16.942a4.877,4.877,0,0,1-1.083-3.349v-.257A5.407,5.407,0,0,1,79.994,11a3.667,3.667,0,0,1,1.382-1.585,3.926,3.926,0,0,1,2.129-.564,3.6,3.6,0,0,1,2.511.9,3.234,3.234,0,0,1,1.067,2.349H85.631a2.116,2.116,0,0,0-.66-1.432,2.053,2.053,0,0,0-1.465-.56,2.149,2.149,0,0,0-1.814.843,3.957,3.957,0,0,0-.643,2.436v.291a3.878,3.878,0,0,0,.639,2.391A2.16,2.16,0,0,0,83.514,16.913ZM90.478,18H88.943V9.019h1.536ZM88.818,6.636a.917.917,0,0,1,.228-.631.857.857,0,0,1,.677-.257.87.87,0,0,1,.681.257.907.907,0,0,1,.232.631.877.877,0,0,1-.232.623.886.886,0,0,1-.681.249.872.872,0,0,1-.677-.249A.886.886,0,0,1,88.818,6.636ZM93.45,18V10.206H92.031V9.019H93.45V8.255a3.12,3.12,0,0,1,.859-2.341,3.332,3.332,0,0,1,2.428-.838,7.311,7.311,0,0,1,2.349.506l-.257,1.295a5.321,5.321,0,0,0-1.976-.415,1.933,1.933,0,0,0-1.424.444,1.831,1.831,0,0,0-.436,1.332v.78h1.834v1.187H94.994V18Zm6.4,0H98.306V9.019H99.85Zm6.1-1.087a2.212,2.212,0,0,0,1.436-.5,1.752,1.752,0,0,0,.681-1.245h1.453a2.785,2.785,0,0,1-.531,1.469,3.5,3.5,0,0,1-1.307,1.112,3.772,3.772,0,0,1-1.731.415,3.7,3.7,0,0,1-2.918-1.224,4.877,4.877,0,0,1-1.083-3.349v-.257A5.407,5.407,0,0,1,102.431,11a3.667,3.667,0,0,1,1.382-1.585,3.926,3.926,0,0,1,2.129-.564,3.6,3.6,0,0,1,2.511.9,3.234,3.234,0,0,1,1.067,2.349h-1.453a2.116,2.116,0,0,0-.66-1.432,2.053,2.053,0,0,0-1.465-.56,2.149,2.149,0,0,0-1.814.843,3.957,3.957,0,0,0-.643,2.436v.291a3.878,3.878,0,0,0,.639,2.391A2.16,2.16,0,0,0,105.951,16.913ZM116.792,18a3.226,3.226,0,0,1-.216-.946,3.426,3.426,0,0,1-2.557,1.112,3.17,3.17,0,0,1-2.179-.751,2.43,2.43,0,0,1-.851-1.905,2.539,2.539,0,0,1,1.067-2.179,5.029,5.029,0,0,1,3-.776h1.494v-.706a1.725,1.725,0,0,0-.481-1.282,1.935,1.935,0,0,0-1.419-.477,2.239,2.239,0,0,0-1.378.415,1.223,1.223,0,0,0-.556,1h-1.544a2.119,2.119,0,0,1,.477-1.3,3.258,3.258,0,0,1,1.295-.992,4.356,4.356,0,0,1,1.8-.365,3.551,3.551,0,0,1,2.432.776,2.8,2.8,0,0,1,.913,2.137V15.9a5.054,5.054,0,0,0,.315,1.967V18Zm-2.548-1.17a2.7,2.7,0,0,0,1.37-.374,2.259,2.259,0,0,0,.938-.971V13.642h-1.2q-2.822,0-2.822,1.652a1.4,1.4,0,0,0,.481,1.129A1.85,1.85,0,0,0,114.243,16.83Zm9.853.083a2.212,2.212,0,0,0,1.436-.5,1.752,1.752,0,0,0,.681-1.245h1.453a2.785,2.785,0,0,1-.531,1.469,3.5,3.5,0,0,1-1.307,1.112,3.772,3.772,0,0,1-1.731.415,3.7,3.7,0,0,1-2.918-1.224,4.877,4.877,0,0,1-1.083-3.349v-.257A5.407,5.407,0,0,1,120.577,11a3.667,3.667,0,0,1,1.382-1.585,3.926,3.926,0,0,1,2.129-.564,3.6,3.6,0,0,1,2.511.9,3.234,3.234,0,0,1,1.067,2.349h-1.453a2.116,2.116,0,0,0-.66-1.432,2.053,2.053,0,0,0-1.465-.56,2.149,2.149,0,0,0-1.814.843,3.957,3.957,0,0,0-.643,2.436v.291a3.878,3.878,0,0,0,.639,2.391A2.16,2.16,0,0,0,124.1,16.913ZM131.061,18h-1.536V9.019h1.536ZM129.4,6.636a.917.917,0,0,1,.228-.631.857.857,0,0,1,.677-.257.87.87,0,0,1,.681.257.907.907,0,0,1,.232.631.877.877,0,0,1-.232.623.886.886,0,0,1-.681.249.872.872,0,0,1-.677-.249A.886.886,0,0,1,129.4,6.636Zm3.71,6.79a5.3,5.3,0,0,1,.519-2.374,3.87,3.87,0,0,1,1.444-1.627,3.932,3.932,0,0,1,2.113-.573,3.788,3.788,0,0,1,2.968,1.27,4.886,4.886,0,0,1,1.133,3.378v.108a5.351,5.351,0,0,1-.5,2.353,3.813,3.813,0,0,1-1.436,1.623,3.977,3.977,0,0,1-2.146.581,3.778,3.778,0,0,1-2.959-1.27,4.861,4.861,0,0,1-1.133-3.362Zm1.544.183a3.842,3.842,0,0,0,.693,2.4A2.349,2.349,0,0,0,139.063,16a4.2,4.2,0,0,0,.689-2.569,3.836,3.836,0,0,0-.7-2.395,2.23,2.23,0,0,0-1.864-.917,2.205,2.205,0,0,0-1.834.9A4.17,4.17,0,0,0,134.655,13.609Zm3.229-8.359h1.859l-2.225,2.44-1.237,0Zm6.782,3.769.05,1.129a3.273,3.273,0,0,1,2.689-1.295q2.847,0,2.872,3.212V18h-1.536V12.057a2.068,2.068,0,0,0-.444-1.436,1.78,1.78,0,0,0-1.357-.465,2.216,2.216,0,0,0-1.312.4,2.706,2.706,0,0,0-.88,1.046V18h-1.536V9.019Z" transform="translate(1020 1625)" fill="#12263f"/>
    <path id="Trazado_600170" data-name="Trazado 600170" d="M60.971,15.883l3.453-9.969h1.743L61.685,18H60.274L55.8,5.914h1.735ZM72.708,18a3.226,3.226,0,0,1-.216-.946,3.426,3.426,0,0,1-2.557,1.112,3.17,3.17,0,0,1-2.179-.751,2.43,2.43,0,0,1-.851-1.905,2.539,2.539,0,0,1,1.067-2.179,5.029,5.029,0,0,1,3-.776h1.494v-.706a1.725,1.725,0,0,0-.481-1.282,1.935,1.935,0,0,0-1.419-.477,2.239,2.239,0,0,0-1.378.415,1.223,1.223,0,0,0-.556,1H67.089a2.119,2.119,0,0,1,.477-1.3,3.258,3.258,0,0,1,1.295-.992,4.356,4.356,0,0,1,1.8-.365,3.551,3.551,0,0,1,2.432.776A2.8,2.8,0,0,1,74,11.766V15.9a5.054,5.054,0,0,0,.315,1.967V18ZM70.16,16.83a2.7,2.7,0,0,0,1.37-.374,2.259,2.259,0,0,0,.938-.971V13.642h-1.2q-2.822,0-2.822,1.652a1.4,1.4,0,0,0,.481,1.129A1.85,1.85,0,0,0,70.16,16.83ZM78.079,18H76.543V5.25h1.536ZM82.2,18H80.669V9.019H82.2ZM80.544,6.636a.917.917,0,0,1,.228-.631.857.857,0,0,1,.677-.257.87.87,0,0,1,.681.257.907.907,0,0,1,.232.631.877.877,0,0,1-.232.623.886.886,0,0,1-.681.249.872.872,0,0,1-.677-.249A.886.886,0,0,1,80.544,6.636Zm3.744,6.8a5.261,5.261,0,0,1,.979-3.324,3.333,3.333,0,0,1,5.063-.178V5.25h1.536V18H90.455l-.075-.963a3.127,3.127,0,0,1-2.565,1.129,3.068,3.068,0,0,1-2.544-1.278,5.321,5.321,0,0,1-.984-3.337Zm1.536.174A3.984,3.984,0,0,0,86.454,16a2.039,2.039,0,0,0,1.743.863,2.24,2.24,0,0,0,2.133-1.312V11.426a2.257,2.257,0,0,0-2.117-1.27,2.049,2.049,0,0,0-1.76.872A4.386,4.386,0,0,0,85.823,13.609ZM99.794,18a3.226,3.226,0,0,1-.216-.946,3.426,3.426,0,0,1-2.557,1.112,3.17,3.17,0,0,1-2.179-.751,2.43,2.43,0,0,1-.851-1.905,2.539,2.539,0,0,1,1.067-2.179,5.029,5.029,0,0,1,3-.776h1.494v-.706a1.725,1.725,0,0,0-.481-1.282,1.935,1.935,0,0,0-1.419-.477,2.239,2.239,0,0,0-1.378.415,1.223,1.223,0,0,0-.556,1H94.174a2.119,2.119,0,0,1,.477-1.3,3.258,3.258,0,0,1,1.295-.992,4.356,4.356,0,0,1,1.8-.365,3.551,3.551,0,0,1,2.432.776,2.8,2.8,0,0,1,.913,2.137V15.9a5.054,5.054,0,0,0,.315,1.967V18Zm-2.548-1.17a2.7,2.7,0,0,0,1.37-.374,2.259,2.259,0,0,0,.938-.971V13.642h-1.2q-2.822,0-2.822,1.652a1.4,1.4,0,0,0,.481,1.129A1.85,1.85,0,0,0,97.245,16.83Zm9.853.083a2.212,2.212,0,0,0,1.436-.5,1.752,1.752,0,0,0,.681-1.245h1.453a2.785,2.785,0,0,1-.531,1.469,3.5,3.5,0,0,1-1.307,1.112,3.772,3.772,0,0,1-1.731.415,3.7,3.7,0,0,1-2.918-1.224,4.877,4.877,0,0,1-1.083-3.349v-.257A5.407,5.407,0,0,1,103.579,11a3.667,3.667,0,0,1,1.382-1.585,3.926,3.926,0,0,1,2.129-.564,3.6,3.6,0,0,1,2.511.9,3.234,3.234,0,0,1,1.067,2.349h-1.453a2.116,2.116,0,0,0-.66-1.432,2.053,2.053,0,0,0-1.465-.56,2.149,2.149,0,0,0-1.814.843,3.957,3.957,0,0,0-.643,2.436v.291a3.878,3.878,0,0,0,.639,2.391A2.16,2.16,0,0,0,107.1,16.913ZM114.063,18h-1.536V9.019h1.536ZM112.4,6.636a.917.917,0,0,1,.228-.631.857.857,0,0,1,.677-.257.87.87,0,0,1,.681.257.907.907,0,0,1,.232.631.877.877,0,0,1-.232.623.886.886,0,0,1-.681.249.872.872,0,0,1-.677-.249A.886.886,0,0,1,112.4,6.636Zm3.71,6.79a5.3,5.3,0,0,1,.519-2.374,3.87,3.87,0,0,1,1.444-1.627,3.932,3.932,0,0,1,2.113-.573,3.788,3.788,0,0,1,2.968,1.27,4.886,4.886,0,0,1,1.133,3.378v.108a5.351,5.351,0,0,1-.5,2.353,3.813,3.813,0,0,1-1.436,1.623,3.977,3.977,0,0,1-2.146.581,3.778,3.778,0,0,1-2.959-1.27,4.861,4.861,0,0,1-1.133-3.362Zm1.544.183a3.842,3.842,0,0,0,.693,2.4A2.349,2.349,0,0,0,122.065,16a4.2,4.2,0,0,0,.689-2.569,3.836,3.836,0,0,0-.7-2.395,2.23,2.23,0,0,0-1.864-.917,2.205,2.205,0,0,0-1.834.9A4.17,4.17,0,0,0,117.657,13.609Zm3.229-8.359h1.859l-2.225,2.44-1.237,0Zm6.782,3.769.05,1.129a3.273,3.273,0,0,1,2.689-1.295q2.847,0,2.872,3.212V18h-1.536V12.057a2.068,2.068,0,0,0-.444-1.436,1.78,1.78,0,0,0-1.357-.465,2.216,2.216,0,0,0-1.312.4,2.706,2.706,0,0,0-.88,1.046V18h-1.536V9.019Z" transform="translate(1020 1524)" fill="#12263f"/>
    <path id="Trazado_599018" data-name="Trazado 599018" d="M-7808.862-10209.2h21.721v54.189h-21.721" transform="translate(8376 11716)" fill="none" stroke="#529d2e" stroke-width="2" stroke-dasharray="3"/>
    <path id="Trazado_599021" data-name="Trazado 599021" d="M-7808.862-10209.2h21.721v54.189h-21.721" transform="translate(-6778.002 -8547.512) rotate(180)" fill="none" stroke="#529d2e" stroke-width="2" stroke-dasharray="3"/>
    <path id="Trazado_599019" data-name="Trazado 599019" d="M-7808.862-10209.2h21.721v54.189h-21.721" transform="translate(8376 11816.7)" fill="none" stroke="#529d2e" stroke-width="2" stroke-dasharray="3"/>
    <path id="Trazado_599020" data-name="Trazado 599020" d="M-7808.862-10209.2h21.721v54.189h-21.721" transform="translate(-6778.002 -8648.211) rotate(180)" fill="none" stroke="#529d2e" stroke-width="2" stroke-dasharray="3"/>
    <path id="Trazado_599022" data-name="Trazado 599022" d="M-7787.141-10182h41.156v92.55h-25.989" transform="translate(8376 11716)" fill="none" stroke="#529d2e" stroke-width="2" stroke-dasharray="3"/>
    <path id="Trazado_599023" data-name="Trazado 599023" d="M-7787.142-10081h408.1" transform="translate(8376 11726)" fill="none" stroke="#529d2e" stroke-width="2" stroke-dasharray="3"/>
    <path id="Trazado_600171" data-name="Trazado 600171" d="M0,0H6V21H0Z" transform="translate(390 1513)" fill="#fc8116" opacity="0.4"/>
    <path id="Trazado_600172" data-name="Trazado 600172" d="M0,0H6V21H0Z" transform="translate(1020 1513)" fill="#fc8116" opacity="0.4"/>
    <path id="Trazado_600173" data-name="Trazado 600173" d="M0,0H6V21H0Z" transform="translate(390 1614)" fill="#fc8116" opacity="0.4"/>
    <path id="Trazado_600174" data-name="Trazado 600174" d="M0,0H6V21H0Z" transform="translate(1020 1614)" fill="#fc8116" opacity="0.4"/>
    <path id="Trazado_600175" data-name="Trazado 600175" d="M5.5,0,11,8H0Z" transform="translate(596.5 1632.05) rotate(-90)" fill="#377518"/>
    <path id="Trazado_599024" data-name="Trazado 599024" d="M-7787.141-10182h42.605v92.55h-27.658" transform="translate(-6779.385 -8555.5) rotate(180)" fill="none" stroke="#529d2e" stroke-width="2" stroke-dasharray="3"/>
    <path id="Trazado_600176" data-name="Trazado 600176" d="M5.5,0,11,8H0Z" transform="translate(1000.114 1528.45) rotate(90)" fill="#377518"/>
    <path id="Trazado_600177" data-name="Trazado 600177" d="M5.5,0,11,8H0Z" transform="translate(1002 1639.5) rotate(90)" fill="#377518"/>
    <g id="Grupo_156861" data-name="Grupo 156861" transform="translate(647.4 1452.292)">
      <g id="Grupo_156792" data-name="Grupo 156792" transform="translate(91.673 60.546)">
        <g id="Grupo_156786" data-name="Grupo 156786" transform="translate(14)">
          <circle id="Elipse_5489" data-name="Elipse 5489" cx="16.674" cy="16.674" r="16.674" transform="translate(3.686 3.686)" fill="#e8e0e4"/>
          <circle id="Elipse_5490" data-name="Elipse 5490" cx="14.397" cy="14.397" r="14.397" transform="translate(0 20.36) rotate(-45)" fill="#f1f1f1"/>
          <g id="Grupo_156785" data-name="Grupo 156785" transform="translate(7.659 7.659)">
            <line id="Línea_435" data-name="Línea 435" y2="2.968" transform="translate(12.701)" fill="none" stroke="#8e3948" stroke-miterlimit="10" stroke-width="1"/>
            <line id="Línea_436" data-name="Línea 436" x2="1.484" y2="2.57" transform="translate(6.351 1.702)" fill="none" stroke="#8e3948" stroke-miterlimit="10" stroke-width="1"/>
            <line id="Línea_437" data-name="Línea 437" x2="2.57" y2="1.484" transform="translate(1.702 6.351)" fill="none" stroke="#8e3948" stroke-miterlimit="10" stroke-width="1"/>
            <line id="Línea_438" data-name="Línea 438" x2="2.968" transform="translate(0 12.701)" fill="none" stroke="#8e3948" stroke-miterlimit="10" stroke-width="1"/>
            <line id="Línea_439" data-name="Línea 439" y1="1.484" x2="2.57" transform="translate(1.702 17.568)" fill="none" stroke="#8e3948" stroke-miterlimit="10" stroke-width="1"/>
            <line id="Línea_440" data-name="Línea 440" y1="2.57" x2="1.484" transform="translate(6.351 21.131)" fill="none" stroke="#8e3948" stroke-miterlimit="10" stroke-width="1"/>
            <line id="Línea_441" data-name="Línea 441" y1="2.968" transform="translate(12.701 22.435)" fill="none" stroke="#8e3948" stroke-miterlimit="10" stroke-width="1"/>
            <line id="Línea_442" data-name="Línea 442" x1="1.484" y1="2.57" transform="translate(17.568 21.131)" fill="none" stroke="#8e3948" stroke-miterlimit="10" stroke-width="1"/>
            <line id="Línea_443" data-name="Línea 443" x1="2.57" y1="1.484" transform="translate(21.131 17.568)" fill="none" stroke="#8e3948" stroke-miterlimit="10" stroke-width="1"/>
            <line id="Línea_444" data-name="Línea 444" x1="2.968" transform="translate(22.435 12.701)" fill="none" stroke="#8e3948" stroke-miterlimit="10" stroke-width="1"/>
            <line id="Línea_445" data-name="Línea 445" x1="2.57" y2="1.484" transform="translate(21.131 6.351)" fill="none" stroke="#8e3948" stroke-miterlimit="10" stroke-width="1"/>
            <line id="Línea_446" data-name="Línea 446" x1="1.484" y2="2.57" transform="translate(17.568 1.702)" fill="none" stroke="#8e3948" stroke-miterlimit="10" stroke-width="1"/>
          </g>
          <line id="Línea_447" data-name="Línea 447" y1="13.072" transform="translate(20.36 9.143)" fill="none" stroke="#e8e0e4" stroke-miterlimit="10" stroke-width="2"/>
          <line id="Línea_448" data-name="Línea 448" x2="10.003" transform="translate(18.506 20.36)" fill="none" stroke="#e8e0e4" stroke-miterlimit="10" stroke-width="2"/>
        </g>
        <g id="Grupo_156787" data-name="Grupo 156787" transform="translate(67.801 14.167)">
          <rect id="Rectángulo_44570" data-name="Rectángulo 44570" width="34.65" height="7.622" transform="translate(0 15.245)" fill="#78cfd8"/>
          <rect id="Rectángulo_44571" data-name="Rectángulo 44571" width="34.65" height="7.622" transform="translate(0 7.622)" fill="#5ab3b7"/>
          <rect id="Rectángulo_44572" data-name="Rectángulo 44572" width="34.65" height="7.622" fill="#2f3767"/>
          <rect id="Rectángulo_44573" data-name="Rectángulo 44573" width="3.216" height="5.588" transform="translate(27.021 16.286)" fill="#ffd994"/>
          <rect id="Rectángulo_44574" data-name="Rectángulo 44574" width="3.216" height="5.588" transform="translate(27.021 8.639)" fill="#e5af70"/>
          <rect id="Rectángulo_44575" data-name="Rectángulo 44575" width="3.216" height="5.588" transform="translate(27.021 0.993)" fill="#ed6d2f"/>
        </g>
        <rect id="Rectángulo_44576" data-name="Rectángulo 44576" width="142.955" height="5.007" transform="translate(2.316 37.034)" fill="#ffd994"/>
        <g id="Grupo_156788" data-name="Grupo 156788" transform="translate(106.137 7.297)">
          <rect id="Rectángulo_44577" data-name="Rectángulo 44577" width="7.594" height="29.737" fill="#fc9a80"/>
          <path id="Trazado_598920" data-name="Trazado 598920" d="M309.067,114.945a1.583,1.583,0,1,1-1.583-1.583A1.584,1.584,0,0,1,309.067,114.945Z" transform="translate(-303.687 -88.994)" fill="#f1f1f1"/>
        </g>
        <g id="Grupo_156789" data-name="Grupo 156789" transform="translate(113.731 7.297)">
          <rect id="Rectángulo_44578" data-name="Rectángulo 44578" width="7.594" height="29.737" fill="#d67363"/>
          <circle id="Elipse_5491" data-name="Elipse 5491" cx="1.583" cy="1.583" r="1.583" transform="translate(2.214 24.368)" fill="#f1f1f1"/>
        </g>
        <g id="Grupo_156790" data-name="Grupo 156790" transform="translate(121.325 7.297)">
          <rect id="Rectángulo_44579" data-name="Rectángulo 44579" width="7.594" height="29.737" fill="#8e3948"/>
          <path id="Trazado_598921" data-name="Trazado 598921" d="M333.635,114.945a1.583,1.583,0,1,1-1.583-1.583A1.583,1.583,0,0,1,333.635,114.945Z" transform="translate(-328.255 -88.994)" fill="#f1f1f1"/>
        </g>
        <g id="Grupo_156791" data-name="Grupo 156791" transform="translate(128.919 7.297)">
          <rect id="Rectángulo_44580" data-name="Rectángulo 44580" width="7.594" height="29.737" fill="#692332"/>
          <path id="Trazado_598922" data-name="Trazado 598922" d="M345.919,114.945a1.583,1.583,0,1,1-1.583-1.583A1.583,1.583,0,0,1,345.919,114.945Z" transform="translate(-340.539 -88.994)" fill="#f1f1f1"/>
        </g>
      </g>
      <g id="Grupo_156803" data-name="Grupo 156803" transform="translate(226.377 127.416)">
        <g id="Grupo_156801" data-name="Grupo 156801">
          <g id="Grupo_156793" data-name="Grupo 156793" transform="translate(4.836)">
            <path id="Trazado_598923" data-name="Trazado 598923" d="M361.6,180.759s-.317-.42-.771-1.092a19.124,19.124,0,0,1-1.518-2.692c-.49-1.058-.882-2.211-1.219-3.079s-.676-1.431-1.191-1.136c-.43.243-.677,1.426-.47,2.96a10.816,10.816,0,0,0,.659,2.465,12.394,12.394,0,0,0,1.288,2.4,18.046,18.046,0,0,0,3.418,3.662c1.142.946,2.17,1.666,2.834,2.145,1.392,2.758,2.754,5.632,2.889,8.729a13.431,13.431,0,0,1-2.66,8.636l.728.552a14.319,14.319,0,0,0,2.8-9.8,17.223,17.223,0,0,0-1.289-4.975c-.636-1.57-1.406-3.051-2.143-4.517a16.1,16.1,0,0,1,.754-6.189c.576-1.837,1.368-2.548.827-3.161a1.077,1.077,0,0,0-1.1-.408,2.19,2.19,0,0,0-1.208.917,5.053,5.053,0,0,0-.747,1.619,6.332,6.332,0,0,0-.176.911s-.056-.5-.076-1.225a12.617,12.617,0,0,1,.205-2.587,16.236,16.236,0,0,1,.682-2.467,2.5,2.5,0,0,0,.207-1.706c-.2-.443-.636-.544-1.256-.229a4.552,4.552,0,0,0-1.846,2.2,8.552,8.552,0,0,0-.676,3.984A11.626,11.626,0,0,0,361.6,180.759Z" transform="translate(-356.353 -170.31)" fill="#216d55"/>
          </g>
          <g id="Grupo_156794" data-name="Grupo 156794" transform="translate(15.268 16.249)">
            <path id="Trazado_598924" data-name="Trazado 598924" d="M380.888,200.477l1.358-1.756c.675-.882,1.377-1.8.909-2.091-.392-.24-1.675.8-2.694,2.212a14.917,14.917,0,0,0-2.039,3.945,19.45,19.45,0,0,0-5.2,8.331l.462.141a19.13,19.13,0,0,1,5.477-8.5,7.65,7.65,0,0,1,1.61-.37c.593-.055,1.169-.112,1.723-.117.273-.009.53-.023.767-.043a4.609,4.609,0,0,0,.66-.065,1.205,1.205,0,0,0,.835-.439c.367-.592-.218-.821-.968-.87a6.549,6.549,0,0,0-1.071.067,3.105,3.105,0,0,0-.517.1s.25-.127.641-.292l.658-.3c.247-.1.509-.21.77-.329,1.048-.467,2.148-.9,2.192-1.432.019-.263-.171-.4-.521-.431a3.746,3.746,0,0,0-1.432.211A10.67,10.67,0,0,0,380.888,200.477Z" transform="translate(-373.227 -196.595)" fill="#216d55"/>
          </g>
          <g id="Grupo_156795" data-name="Grupo 156795" transform="translate(0 16.628)">
            <path id="Trazado_598925" data-name="Trazado 598925" d="M353.736,201.861a8.424,8.424,0,0,0-2.164-.556c-1.089-.122-2.1.092-2.09.642,0,.47,1.218.551,2.729.91a17.539,17.539,0,0,1,4.089,1.5,15.171,15.171,0,0,1,2.571,10.136l.524.056a15.675,15.675,0,0,0-3.036-11.01,24.373,24.373,0,0,0-1.255-3.913c-.6-1.306-1.466-2.345-2.269-2.413-.969-.054-.577.7-.087,1.472s1.1,1.622,1.1,1.622a10.676,10.676,0,0,0-2.2-1.658c-1.222-.718-2.682-1.066-3.031-.622s.389.95,1.46,1.563S352.56,201.017,353.736,201.861Z" transform="translate(-348.53 -197.209)" fill="#216d55"/>
          </g>
          <g id="Grupo_156796" data-name="Grupo 156796" transform="translate(9.898 18.041)">
            <path id="Trazado_598926" data-name="Trazado 598926" d="M365.562,202.487l.168-1.429c.081-.716.168-1.462-.189-1.467-.3,0-.67,1-.763,2.132a9.5,9.5,0,0,0,.194,2.871,12.282,12.282,0,0,0-.025,6.356l.3-.082a12.067,12.067,0,0,1,.124-6.541,7.014,7.014,0,0,1,1.681-1.385c.582-.393,1.066-.684,1.071-1.053.006-.45-.394-.384-.827-.163a4.208,4.208,0,0,0-.571.393,1.952,1.952,0,0,0-.254.226s.4-.6.84-1.2.894-1.212.745-1.521-.632-.058-1.16.524A6.81,6.81,0,0,0,365.562,202.487Z" transform="translate(-364.542 -199.494)" fill="#216d55"/>
          </g>
          <g id="Grupo_156797" data-name="Grupo 156797" transform="translate(3.469 24.498)">
            <path id="Trazado_598927" data-name="Trazado 598927" d="M357.079,212.113a4.215,4.215,0,0,0-1.116-.034c-.545.06-1.014.276-.948.542.051.229.654.135,1.43.145a8.7,8.7,0,0,1,2.157.283,7.556,7.556,0,0,1,2.352,4.667l.261-.029a7.808,7.808,0,0,0-2.674-5.043,12.082,12.082,0,0,0-1.039-1.771c-.434-.572-.972-.984-1.371-.929-.478.079-.205.4.119.727l.713.671a5.338,5.338,0,0,0-1.252-.568c-.675-.216-1.426-.225-1.547.03s.294.42.883.6S356.413,211.829,357.079,212.113Z" transform="translate(-354.141 -209.939)" fill="#216d55"/>
          </g>
          <g id="Grupo_156798" data-name="Grupo 156798" transform="translate(16.381 9.713)">
            <path id="Trazado_598928" data-name="Trazado 598928" d="M378.31,189.773l.618-1.8c.3-.9.621-1.841.162-1.947-.385-.087-1.14,1.108-1.576,2.537a12.762,12.762,0,0,0-.566,3.762,16.629,16.629,0,0,0-1.911,8.192l.414-.014a16.365,16.365,0,0,1,2.091-8.409,6.587,6.587,0,0,1,1.2-.744c.467-.208.918-.413,1.366-.57.43-.172.825-.32,1.127-.481s.5-.346.556-.587c.135-.58-.4-.606-1.025-.44a5.652,5.652,0,0,0-.85.35,2.62,2.62,0,0,0-.392.222s.168-.172.44-.414l.45-.427c.173-.149.355-.311.534-.48.721-.667,1.494-1.324,1.384-1.764s-.8-.247-1.644.359A9.133,9.133,0,0,0,378.31,189.773Z" transform="translate(-375.029 -186.023)" fill="#216d55"/>
          </g>
          <g id="Grupo_156799" data-name="Grupo 156799" transform="translate(12.468 22.85)">
            <path id="Trazado_598929" data-name="Trazado 598929" d="M370.352,209.353a3.687,3.687,0,0,0-.773-.451c-.406-.17-.815-.22-.876-.007-.055.181.41.369.956.68a9.391,9.391,0,0,1,1.45.987,7.267,7.267,0,0,1,.445,4.16l.205.041a7.552,7.552,0,0,0-.557-4.513,13.365,13.365,0,0,0-.094-1.609c-.083-.554-.287-1.036-.582-1.148-.349-.134-.3.2-.2.543s.234.734.234.734a4.543,4.543,0,0,0-.645-.87c-.38-.408-.877-.721-1.063-.6s.025.408.355.774S369.986,208.906,370.352,209.353Z" transform="translate(-368.698 -207.273)" fill="#216d55"/>
          </g>
          <g id="Grupo_156800" data-name="Grupo 156800" transform="translate(18.335 22.957)">
            <path id="Trazado_598930" data-name="Trazado 598930" d="M381.1,210.06s.353-.611.755-1.214.828-1.217.514-1.383c-.265-.14-1.09.6-1.66,1.588a7.394,7.394,0,0,0-.927,2.714,8.936,8.936,0,0,0-1.54,6l.306-.033a8.614,8.614,0,0,1,1.694-6.076,5.447,5.447,0,0,1,2.009-.589c.664-.1,1.186-.123,1.339-.441.2-.37-.177-.52-.641-.509a3.617,3.617,0,0,0-.979.185s.6-.365,1.238-.684c.631-.339,1.314-.618,1.337-.953s-.512-.362-1.247-.106A5.81,5.81,0,0,0,381.1,210.06Z" transform="translate(-378.189 -207.446)" fill="#216d55"/>
          </g>
        </g>
        <g id="Grupo_156802" data-name="Grupo 156802" transform="translate(3.679 29.413)">
          <rect id="Rectángulo_44581" data-name="Rectángulo 44581" width="14.041" height="19.217" transform="translate(7.02)" fill="#8e3948"/>
          <rect id="Rectángulo_44582" data-name="Rectángulo 44582" width="14.041" height="19.217" fill="#c1380c"/>
        </g>
      </g>
      <g id="Grupo_156811" data-name="Grupo 156811" transform="translate(101.591 116.976)">
        <g id="Grupo_156808" data-name="Grupo 156808" transform="translate(65.013)">
          <path id="Trazado_598931" data-name="Trazado 598931" d="M296.741,191.813l2.336,31.538a3.539,3.539,0,0,1-3.529,3.8h16.026a3.41,3.41,0,0,0,3.3-4.265l-8.056-31.072Z" transform="translate(-266.835 -168.081)" fill="#f1f1f1"/>
          <path id="Trazado_598932" data-name="Trazado 598932" d="M295.83,191.813l2.336,31.538a3.539,3.539,0,0,1-3.529,3.8h16.026a3.41,3.41,0,0,0,3.3-4.265l-8.056-31.072Z" transform="translate(-266.487 -168.081)" fill="#e8e0e4"/>
          <path id="Trazado_598933" data-name="Trazado 598933" d="M311.608,245.048H286.137a2.014,2.014,0,0,0-2.014,2.014v.414h23.87C311.257,247.476,311.608,245.048,311.608,245.048Z" transform="translate(-264.166 -188.407)" fill="#f1f1f1"/>
          <rect id="Rectángulo_44583" data-name="Rectángulo 44583" width="62.738" height="50.523" rx="4.712" fill="#33252f"/>
          <rect id="Rectángulo_44584" data-name="Rectángulo 44584" width="59.308" height="44.697" transform="translate(61.023 47.61) rotate(180)" fill="#e8e0e4"/>
          <g id="Grupo_156807" data-name="Grupo 156807" transform="translate(6.758 6.52)" opacity="0.2">
            <g id="Grupo_156804" data-name="Grupo 156804" transform="translate(0 4.015)">
              <rect id="Rectángulo_44585" data-name="Rectángulo 44585" width="24.178" height="12.751" fill="#fc9a80"/>
              <rect id="Rectángulo_44586" data-name="Rectángulo 44586" width="24.178" height="12.751" transform="translate(25.044)" fill="#f1f1f1"/>
            </g>
            <rect id="Rectángulo_44587" data-name="Rectángulo 44587" width="49.222" height="14.601" transform="translate(0 18.518)" fill="#fc9a80"/>
            <rect id="Rectángulo_44588" data-name="Rectángulo 44588" width="49.222" height="1.464" fill="#fc9a80"/>
            <g id="Grupo_156805" data-name="Grupo 156805" transform="translate(0 34.54)">
              <rect id="Rectángulo_44589" data-name="Rectángulo 44589" width="2.958" height="2.958" rx="1.122" fill="#fc9a80"/>
              <rect id="Rectángulo_44590" data-name="Rectángulo 44590" width="2.958" height="2.958" rx="1.122" transform="translate(4.627)" fill="#fc9a80"/>
              <rect id="Rectángulo_44591" data-name="Rectángulo 44591" width="2.958" height="2.958" rx="1.122" transform="translate(9.253)" fill="#fc9a80"/>
              <rect id="Rectángulo_44592" data-name="Rectángulo 44592" width="2.958" height="2.958" rx="1.122" transform="translate(13.879)" fill="#fc9a80"/>
              <rect id="Rectángulo_44593" data-name="Rectángulo 44593" width="2.958" height="2.958" rx="1.122" transform="translate(18.506)" fill="#fc9a80"/>
              <rect id="Rectángulo_44594" data-name="Rectángulo 44594" width="2.958" height="2.958" rx="1.122" transform="translate(23.132)" fill="#fc9a80"/>
              <rect id="Rectángulo_44595" data-name="Rectángulo 44595" width="2.958" height="2.958" rx="1.122" transform="translate(27.759)" fill="#fc9a80"/>
              <rect id="Rectángulo_44596" data-name="Rectángulo 44596" width="2.958" height="2.958" rx="1.122" transform="translate(32.385)" fill="#fc9a80"/>
              <rect id="Rectángulo_44597" data-name="Rectángulo 44597" width="2.958" height="2.958" rx="1.122" transform="translate(37.012)" fill="#fc9a80"/>
              <rect id="Rectángulo_44598" data-name="Rectángulo 44598" width="2.958" height="2.958" rx="1.122" transform="translate(41.638)" fill="#fc9a80"/>
              <rect id="Rectángulo_44599" data-name="Rectángulo 44599" width="2.958" height="2.958" rx="1.122" transform="translate(46.265)" fill="#fc9a80"/>
            </g>
            <g id="Grupo_156806" data-name="Grupo 156806" transform="translate(25.044 4.015)">
              <line id="Línea_449" data-name="Línea 449" x2="24.178" y2="12.751" fill="none" stroke="#463840" stroke-miterlimit="10" stroke-width="1"/>
              <line id="Línea_450" data-name="Línea 450" x1="24.178" y2="12.751" fill="none" stroke="#463840" stroke-miterlimit="10" stroke-width="1"/>
            </g>
          </g>
        </g>
        <g id="Grupo_156810" data-name="Grupo 156810" transform="translate(0)">
          <path id="Trazado_598934" data-name="Trazado 598934" d="M188.515,191.813l-2.336,31.538a3.539,3.539,0,0,0,3.529,3.8H173.682a3.41,3.41,0,0,1-3.3-4.265l8.056-31.072Z" transform="translate(-155.683 -168.081)" fill="#f1f1f1"/>
          <path id="Trazado_598935" data-name="Trazado 598935" d="M189.426,191.813l-2.336,31.538a3.539,3.539,0,0,0,3.529,3.8H174.593a3.41,3.41,0,0,1-3.3-4.265l8.056-31.072Z" transform="translate(-156.03 -168.081)" fill="#e8e0e4"/>
          <path id="Trazado_598936" data-name="Trazado 598936" d="M171.416,245.048h25.471a2.014,2.014,0,0,1,2.014,2.014v.414h-23.87C171.768,247.476,171.416,245.048,171.416,245.048Z" transform="translate(-156.12 -188.407)" fill="#f1f1f1"/>
          <rect id="Rectángulo_44600" data-name="Rectángulo 44600" width="62.738" height="50.523" rx="4.712" transform="translate(62.738 50.523) rotate(180)" fill="#33252f"/>
          <rect id="Rectángulo_44601" data-name="Rectángulo 44601" width="59.308" height="44.697" transform="translate(1.715 2.913)" fill="#e8e0e4"/>
          <g id="Grupo_156809" data-name="Grupo 156809" transform="translate(7.467 7.984)" opacity="0.2">
            <rect id="Rectángulo_44602" data-name="Rectángulo 44602" width="3.585" height="1.401" fill="#78cfd8"/>
            <rect id="Rectángulo_44603" data-name="Rectángulo 44603" width="7.586" height="1.401" transform="translate(4.829)" fill="#ff6a66"/>
            <rect id="Rectángulo_44604" data-name="Rectángulo 44604" width="7.586" height="1.401" transform="translate(4.836 22.952)" fill="#ff6a66"/>
            <rect id="Rectángulo_44605" data-name="Rectángulo 44605" width="7.586" height="1.401" transform="translate(4.839 33.153)" fill="#ff6a66"/>
            <rect id="Rectángulo_44606" data-name="Rectángulo 44606" width="7.586" height="1.401" transform="translate(4.835 20.402)" fill="#ff6a66"/>
            <rect id="Rectángulo_44607" data-name="Rectángulo 44607" width="13.057" height="1.401" transform="translate(6.88 2.55)" fill="#ffd994"/>
            <rect id="Rectángulo_44608" data-name="Rectángulo 44608" width="24.115" height="1.401" transform="translate(9.754 10.201)" fill="#ffd994"/>
            <rect id="Rectángulo_44609" data-name="Rectángulo 44609" width="18.907" height="1.401" transform="translate(28.889 5.1)" fill="#ffd994"/>
            <rect id="Rectángulo_44610" data-name="Rectángulo 44610" width="13.057" height="1.401" transform="translate(20.809 2.55)" fill="#78cfd8"/>
            <rect id="Rectángulo_44611" data-name="Rectángulo 44611" width="21.163" height="1.401" transform="translate(6.881 5.1)" fill="#78cfd8"/>
            <rect id="Rectángulo_44612" data-name="Rectángulo 44612" width="38.043" height="1.401" transform="translate(9.756 15.301)" fill="#78cfd8"/>
            <rect id="Rectángulo_44613" data-name="Rectángulo 44613" width="13.057" height="1.401" transform="translate(34.738 2.55)" fill="#fc9a80"/>
            <rect id="Rectángulo_44614" data-name="Rectángulo 44614" width="10.186" height="1.401" transform="translate(9.755 12.751)" fill="#ffd994"/>
            <rect id="Rectángulo_44615" data-name="Rectángulo 44615" width="13.057" height="1.401" transform="translate(20.812 12.751)" fill="#78cfd8"/>
            <rect id="Rectángulo_44616" data-name="Rectángulo 44616" width="13.057" height="1.401" transform="translate(34.741 12.751)" fill="#fc9a80"/>
            <rect id="Rectángulo_44617" data-name="Rectángulo 44617" width="13.057" height="1.401" transform="translate(34.74 10.201)" fill="#78cfd8"/>
            <rect id="Rectángulo_44618" data-name="Rectángulo 44618" width="40.915" height="1.401" transform="translate(6.882 7.651)" fill="#fc9a80"/>
            <rect id="Rectángulo_44619" data-name="Rectángulo 44619" width="13.057" height="1.401" transform="translate(6.888 25.502)" fill="#ffd994"/>
            <rect id="Rectángulo_44620" data-name="Rectángulo 44620" width="18.907" height="1.401" transform="translate(28.896 28.053)" fill="#ffd994"/>
            <rect id="Rectángulo_44621" data-name="Rectángulo 44621" width="13.057" height="1.401" transform="translate(20.816 25.502)" fill="#78cfd8"/>
            <rect id="Rectángulo_44622" data-name="Rectángulo 44622" width="21.163" height="1.401" transform="translate(6.888 28.053)" fill="#78cfd8"/>
            <rect id="Rectángulo_44623" data-name="Rectángulo 44623" width="13.057" height="1.401" transform="translate(34.745 25.502)" fill="#fc9a80"/>
            <rect id="Rectángulo_44624" data-name="Rectángulo 44624" width="40.915" height="1.401" transform="translate(6.889 30.603)" fill="#fc9a80"/>
            <rect id="Rectángulo_44625" data-name="Rectángulo 44625" width="40.915" height="1.401" transform="translate(6.885 17.852)" fill="#fc9a80"/>
            <rect id="Rectángulo_44626" data-name="Rectángulo 44626" width="3.585" height="1.401" transform="translate(0.001 2.55)" fill="#78cfd8"/>
            <rect id="Rectángulo_44627" data-name="Rectángulo 44627" width="3.585" height="1.401" transform="translate(0.002 5.1)" fill="#78cfd8"/>
            <rect id="Rectángulo_44628" data-name="Rectángulo 44628" width="3.585" height="1.401" transform="translate(0.002 7.651)" fill="#78cfd8"/>
            <rect id="Rectángulo_44629" data-name="Rectángulo 44629" width="3.585" height="1.401" transform="translate(0.003 10.201)" fill="#78cfd8"/>
            <rect id="Rectángulo_44630" data-name="Rectángulo 44630" width="3.585" height="1.401" transform="translate(0.004 12.751)" fill="#78cfd8"/>
            <rect id="Rectángulo_44631" data-name="Rectángulo 44631" width="3.585" height="1.401" transform="translate(0.005 15.301)" fill="#78cfd8"/>
            <rect id="Rectángulo_44632" data-name="Rectángulo 44632" width="3.585" height="1.401" transform="translate(0.006 17.852)" fill="#78cfd8"/>
            <rect id="Rectángulo_44633" data-name="Rectángulo 44633" width="3.585" height="1.401" transform="translate(0.006 20.402)" fill="#78cfd8"/>
            <rect id="Rectángulo_44634" data-name="Rectángulo 44634" width="3.585" height="1.401" transform="translate(0.007 22.952)" fill="#78cfd8"/>
            <rect id="Rectángulo_44635" data-name="Rectángulo 44635" width="3.585" height="1.401" transform="translate(0.008 25.502)" fill="#78cfd8"/>
            <rect id="Rectángulo_44636" data-name="Rectángulo 44636" width="3.585" height="1.401" transform="translate(0.009 28.053)" fill="#78cfd8"/>
            <rect id="Rectángulo_44637" data-name="Rectángulo 44637" width="3.585" height="1.401" transform="translate(0.01 30.603)" fill="#78cfd8"/>
            <rect id="Rectángulo_44638" data-name="Rectángulo 44638" width="3.585" height="1.401" transform="translate(0.011 33.153)" fill="#78cfd8"/>
          </g>
        </g>
      </g>
      <g id="Grupo_156812" data-name="Grupo 156812" transform="translate(53.812 176.046)">
        <rect id="Rectángulo_44639" data-name="Rectángulo 44639" width="176.838" height="15.248" transform="translate(23.237 10.06)" fill="#ffd994"/>
        <rect id="Rectángulo_44640" data-name="Rectángulo 44640" width="176.838" height="7.624" transform="translate(23.237 10.06)" fill="#e5af70"/>
        <rect id="Rectángulo_44641" data-name="Rectángulo 44641" width="223.311" height="10.06" fill="#ffd994"/>
        <rect id="Rectángulo_44642" data-name="Rectángulo 44642" width="223.311" height="5.03" transform="translate(0 5.03)" fill="#e5af70"/>
        <path id="Trazado_598937" data-name="Trazado 598937" d="M106.971,289.915V393.569h0a3.949,3.949,0,0,0,3.925-3.519l10.957-100.135Z" transform="translate(-83.735 -264.607)" fill="#ffd994"/>
        <path id="Trazado_598938" data-name="Trazado 598938" d="M383.837,289.915V393.569h0a3.949,3.949,0,0,1-3.925-3.519L368.953,289.915Z" transform="translate(-183.762 -264.607)" fill="#ffd994"/>
      </g>
      <g id="Grupo_156822" data-name="Grupo 156822" transform="translate(127.386 93.793)">
        <g id="Grupo_156816" data-name="Grupo 156816" transform="translate(0 116.307)">
          <g id="Grupo_156813" data-name="Grupo 156813">
            <path id="Trazado_598939" data-name="Trazado 598939" d="M202.371,421.394c-.514,2.643-1.178,5.231-1.178,5.231s-10.285,4.328-9.154,1.152a62.379,62.379,0,0,0,1.916-6.383c.6-2.2,3.341-6.67,6.484-5.744C201.891,416.077,202.371,421.394,202.371,421.394Z" transform="translate(-189.755 -346.621)" fill="#fc9a80"/>
            <path id="Trazado_598940" data-name="Trazado 598940" d="M201.033,304.063c-1.911,7.962-3.943,13.825-3.371,30.441.768,22.288,1.467,30.3-2.47,44.332a6.245,6.245,0,0,1,2.2-1.848c2.426-1.234,5.543-.347,6.221,1.848,0,0,2.779-13.611,4.6-21.883,3.28-14.926,10.413-21.91,7.071-40.612Z" transform="translate(-190.992 -304.063)" fill="#8e3948"/>
            <path id="Trazado_598941" data-name="Trazado 598941" d="M195.06,445.762c3.482,0,4.617-2.392,4.569-3.794-.054-1.558-.951-2.925-.7-4.616.38-2.538,1.486-3.67,1.4-6.158-.042-1.225-.815-5.09-4.167-4.523-2.319.393-4.2,2.706-5.481,5.34a27.076,27.076,0,0,0-2.278,10.323C188.5,445.178,189.905,445.762,195.06,445.762Z" transform="translate(-188.398 -350.855)" fill="#1f2848"/>
          </g>
          <g id="Grupo_156815" data-name="Grupo 156815" transform="translate(48.63 8.237)">
            <path id="Trazado_598942" data-name="Trazado 598942" d="M285.892,417.007c.266,2.592,1.63,4.988,2.028,7.117,0,0,8.853,1.93,7.866,0s-.948-4-1.218-7.117-6.21-4-7.517-2.532A3.5,3.5,0,0,0,285.892,417.007Z" transform="translate(-274.25 -354.193)" fill="#fc9a80"/>
            <g id="Grupo_156814" data-name="Grupo 156814">
              <path id="Trazado_598943" data-name="Trazado 598943" d="M285.65,317.387c1.712,10.1.4,52.134,1.732,62.814,0,0-5.948-3.636-8.676,0,0,0-2.765-20.367-6.243-33.7s-6.15-16.529-5.208-25.384Z" transform="translate(-267.063 -317.387)" fill="#8e3948"/>
            </g>
            <path id="Trazado_598944" data-name="Trazado 598944" d="M291.24,435.928c-1.425-1.814-2.373-3.024-2.588-4.743l-.347-2.787a3.294,3.294,0,0,1,3.173-3.38c2.4,0,4.931,2.727,6.1,4.625s6.188,6.4,6.735,10.792-1.276,4.717-7.132,4.717S292.5,437.527,291.24,435.928Z" transform="translate(-275.17 -358.482)" fill="#1f2848"/>
          </g>
        </g>
        <path id="Trazado_598945" data-name="Trazado 598945" d="M212.373,289.137c-9.95,4.7-10.948,16.912-6.976,20.884s19.239,2.973,29.027,2.973H252.84c6.055,0,13.749-3.934,13.054-11.082s-7.644-9.034-7.644-9.034Z" transform="translate(-194.059 -182.057)" fill="#ff6a66"/>
        <g id="Grupo_156821" data-name="Grupo 156821" transform="translate(4.362)">
          <g id="Grupo_156818" data-name="Grupo 156818" transform="translate(50.785 45.7)">
            <path id="Trazado_598946" data-name="Trazado 598946" d="M285.945,189.847c5.463,5.18,7.879,18.912,8.6,28.554.666,8.879-.388,15.755-2.961,16.963-1.919.9-11.263.861-13.982-6.459v-5.149c4.582-1,6.482,0,6.482,0s-1.673-11.79-2.718-15.764S285.945,189.847,285.945,189.847Z" transform="translate(-277.606 -189.847)" fill="#529d2e"/>
            <g id="Grupo_156817" data-name="Grupo 156817" transform="translate(0 33.465)">
              <path id="Trazado_598947" data-name="Trazado 598947" d="M284.8,250c-.21-2-.713-5.573-.713-5.573s-1.9-1-6.482,0v1.206C282.455,246.973,284.977,251.661,284.8,250Z" transform="translate(-277.606 -243.981)" fill="#1f2848"/>
            </g>
            <path id="Trazado_598948" data-name="Trazado 598948" d="M287.076,200.169c-1.581,4.378-4.2,8.424-3.461,11.248.653,2.483,1.944,10.632,2.526,14.435-.2-5.293,4.865-13.985,2.742-27.035A16.558,16.558,0,0,1,287.076,200.169Z" transform="translate(-279.851 -193.271)" fill="#3c7023"/>
          </g>
          <g id="Grupo_156820" data-name="Grupo 156820" transform="translate(5.399 79.608)">
            <path id="Trazado_598949" data-name="Trazado 598949" d="M218.024,246.171c3.922-.414,7.844,1.792,7.844,5.239h-6.8Z" transform="translate(-209.471 -245.242)" fill="#d67363"/>
            <g id="Grupo_156819" data-name="Grupo 156819">
              <path id="Trazado_598950" data-name="Trazado 598950" d="M204.188,257.514c4.643,0,11.176-5.661,12.163-6.648s.627-7.376-4.86-5.966Z" transform="translate(-204.188 -244.699)" fill="#2f3767"/>
            </g>
            <path id="Trazado_598951" data-name="Trazado 598951" d="M215.079,244.9l-1.2,2.072a16.812,16.812,0,0,1-.294,3.652s2.388-4.136,5.584-4.844h0A3.88,3.88,0,0,0,215.079,244.9Z" transform="translate(-207.776 -244.699)" fill="#1f2848"/>
          </g>
          <path id="Trazado_598952" data-name="Trazado 598952" d="M229.355,141.879c-1.41-1.435-1.73.859-.86,3.37.692,2,1.829,4.22,2.784,4.445,2.186.514,2.7-1.146,2.7,1.163v9.38c0,1.542-6.557,5.914-6.557,5.914h28.67s-8.1-3.6-8.1-6.3v-8.1c0-.771,2.254-.894,2.8-4.043.353-.572,1.4,1.8,2.649-2.5,1.316-4.528.036-5.575-1.871-3.961C248.481,142.665,229.355,141.879,229.355,141.879Z" transform="translate(-207.66 -125.321)" fill="#fc9a80"/>
          <path id="Trazado_598953" data-name="Trazado 598953" d="M231.756,121.9a15.258,15.258,0,0,0-1.484,11.1c1.384,5.794,6.26,11.483,12.1,11.483,4.769,0,9.238-5.439,11.275-9.8a14.244,14.244,0,0,0-1.228-13.754c-2.3-3.375-5.611-5-10.056-5C235.37,115.922,232.755,120.127,231.756,121.9Z" transform="translate(-208.577 -115.922)" fill="#33252f"/>
          <path id="Trazado_598954" data-name="Trazado 598954" d="M211.7,184.654c6.77-3.6,14.312-5.077,23.729-5.077s17.033-.423,25.354,6.347a42.958,42.958,0,0,1-1.269,21.156c-3.667,10.719-2.962,18.536-.564,24.36s6.629,18.8,7.476,24.864c0,0-3.809,8.463-27.363,8.463s-27.221-6.488-26.375-11.284,9.309-15.455,10.3-22.043-4.654-13.077-7.334-19.705S214.8,194.1,211.7,184.654Z" transform="translate(-201.657 -140.224)" fill="#529d2e"/>
          <path id="Trazado_598955" data-name="Trazado 598955" d="M213.295,262.61c2.3-8.036,12.543-16.882,11.862-26.14s-8.956-26.433-9.064-32.689l-1.987-.307c.581,6.569.359,12.956,2.151,17.388,2.68,6.629,8.321,13.117,7.334,19.705S214.141,257.814,213.295,262.61Z" transform="translate(-202.266 -149.35)" fill="#3c7023"/>
          <path id="Trazado_598956" data-name="Trazado 598956" d="M229.614,125.845a13.434,13.434,0,0,0,2.227,2.658c6.785,7.493-13.1,5.92-11.077,16.857.446,2.421,2.3,4.3,4.058,6.024a5.262,5.262,0,0,0-5.918-.674,5.137,5.137,0,0,0,1.7,9.542c2.516.389,5.082-1.112,7.554-.381,6.724,1.986-4.8,7.378,6.231,11.561,16,6.068,16.529-10.792,7.5-14.55a5.2,5.2,0,0,0,7.129-6.953c-2.571-4.832-7.273-1.6-9-2.145-1.609-.51-1.933-2.8-1.119-4.282s2.324-2.409,3.594-3.521c7.145-6.258,1.505-14.137-3.339-11.469,4.408-1.932,3.65-8.425-1.992-8.141C232.748,116.748,227.079,120.913,229.614,125.845Z" transform="translate(-203.41 -117.098)" fill="#463840"/>
          <path id="Trazado_598957" data-name="Trazado 598957" d="M208.156,223.1l1.233-19.124s.5-17.95-3.893-16.26c-7.861,3.022-9.882,35.991-10.039,42.062a5.486,5.486,0,0,0,5.4,5.935C204.55,235.716,207.833,228.111,208.156,223.1Z" transform="translate(-195.455 -143.292)" fill="#529d2e"/>
        </g>
      </g>
      <g id="Grupo_156825" data-name="Grupo 156825" transform="translate(124.9 165.391)">
        <path id="Rectángulo_44643" data-name="Rectángulo 44643" d="M5.55,0H67.482a5.55,5.55,0,0,1,5.55,5.55v0A28.919,28.919,0,0,1,44.113,34.469H28.919A28.919,28.919,0,0,1,0,5.55v0A5.55,5.55,0,0,1,5.55,0Z" transform="translate(4.051)" fill="#ffd994"/>
        <path id="Trazado_598958" data-name="Trazado 598958" d="M193.64,338.925l-9.263,73.356h0a5.764,5.764,0,0,0,5.629-4.523l13.856-56.695h21.083V338.925Z" transform="translate(-184.377 -272.665)" fill="#ffd994"/>
        <path id="Trazado_598959" data-name="Trazado 598959" d="M281.3,338.925l9.264,73.356h0a5.764,5.764,0,0,1-5.629-4.523l-13.857-56.695H250V338.925Z" transform="translate(-209.433 -272.665)" fill="#e5af70"/>
        <path id="Trazado_598960" data-name="Trazado 598960" d="M261.019,334.19H193.875a2.944,2.944,0,0,1-2.944-2.944h0a4.722,4.722,0,0,1,4.722-4.722H259.24a4.722,4.722,0,0,1,4.722,4.722h0A2.944,2.944,0,0,1,261.019,334.19Z" transform="translate(-186.879 -267.93)" fill="#463840"/>
        <g id="Grupo_156823" data-name="Grupo 156823" transform="translate(11.266 17.235)">
          <path id="Trazado_598961" data-name="Trazado 598961" d="M210.946,264.737l7.292,56.044h-4.192L205.54,259.62h0A5.689,5.689,0,0,1,210.946,264.737Z" transform="translate(-203.723 -259.62)" fill="#e5af70"/>
          <path id="Trazado_598962" data-name="Trazado 598962" d="M212.924,320.781H209.43l-6.81-58.852a1.96,1.96,0,0,1,1.8-2.309h0Z" transform="translate(-202.601 -259.62)" fill="#ffd994"/>
        </g>
        <g id="Grupo_156824" data-name="Grupo 156824" transform="translate(55.354 17.235)">
          <path id="Trazado_598963" data-name="Trazado 598963" d="M281.211,264.737l-7.292,56.044h4.192l8.506-61.161h0A5.689,5.689,0,0,0,281.211,264.737Z" transform="translate(-273.919 -259.62)" fill="#ffd994"/>
          <path id="Trazado_598964" data-name="Trazado 598964" d="M280.7,320.781h3.494L291,261.929a1.96,1.96,0,0,0-1.8-2.309h0Z" transform="translate(-276.508 -259.62)" fill="#e5af70"/>
        </g>
      </g>
      <g id="Grupo_156829" data-name="Grupo 156829" transform="translate(78.397 147.154)">
        <g id="Grupo_156826" data-name="Grupo 156826" transform="translate(0)">
          <path id="Trazado_598965" data-name="Trazado 598965" d="M116.843,231.132h18.623a1.492,1.492,0,0,0,1.461-1.8L131.7,204.22a2.487,2.487,0,0,0-2.434-1.98H110.647a1.493,1.493,0,0,0-1.461,1.8l5.223,25.115A2.486,2.486,0,0,0,116.843,231.132Z" transform="translate(-109.154 -202.24)" fill="#463840"/>
          <path id="Trazado_598966" data-name="Trazado 598966" d="M117.65,231.132h18.623a1.492,1.492,0,0,0,1.461-1.8l-5.222-25.116a2.487,2.487,0,0,0-2.434-1.98H111.454a1.492,1.492,0,0,0-1.461,1.8l5.223,25.115A2.486,2.486,0,0,0,117.65,231.132Z" transform="translate(-109.462 -202.24)" fill="#f1f1f1"/>
          <path id="Trazado_598967" data-name="Trazado 598967" d="M132.648,205.33l5.223,25.115-21.021-.184-5.223-25.115Z" transform="translate(-110.098 -203.349)" fill="#e8e0e4"/>
        </g>
        <g id="Grupo_156828" data-name="Grupo 156828" transform="translate(4.158 3.028)" opacity="0.2">
          <path id="Trazado_598968" data-name="Trazado 598968" d="M137.295,231.412H120.934l-1.593-7.651H135.7Z" transform="translate(-117.202 -213.486)" fill="#f1f1f1"/>
          <path id="Trazado_598969" data-name="Trazado 598969" d="M132.455,208.164H116.094l-.213-1.025h16.361Z" transform="translate(-115.88 -207.139)" fill="#fc9a80"/>
          <path id="Trazado_598970" data-name="Trazado 598970" d="M134.594,218.44H118.233l-1.593-7.651H133Z" transform="translate(-116.17 -208.533)" fill="#fc9a80"/>
          <path id="Trazado_598971" data-name="Trazado 598971" d="M125.534,242.25h-1.57a.9.9,0,0,1-.838-.694l-.327-1.57a.547.547,0,0,1,.549-.694h1.57a.9.9,0,0,1,.838.694l.327,1.57A.547.547,0,0,1,125.534,242.25Z" transform="translate(-118.516 -219.416)" fill="#fc9a80"/>
          <path id="Trazado_598972" data-name="Trazado 598972" d="M132.761,242.25h-1.57a.9.9,0,0,1-.838-.694l-.327-1.57a.547.547,0,0,1,.55-.694h1.57a.9.9,0,0,1,.838.694l.326,1.57A.547.547,0,0,1,132.761,242.25Z" transform="translate(-121.275 -219.416)" fill="#fc9a80"/>
          <path id="Trazado_598973" data-name="Trazado 598973" d="M139.989,242.25h-1.57a.9.9,0,0,1-.838-.694l-.326-1.57a.547.547,0,0,1,.549-.694h1.57a.9.9,0,0,1,.838.694l.327,1.57A.547.547,0,0,1,139.989,242.25Z" transform="translate(-124.035 -219.416)" fill="#fc9a80"/>
          <path id="Trazado_598974" data-name="Trazado 598974" d="M147.216,242.25h-1.57a.9.9,0,0,1-.838-.694l-.327-1.57a.547.547,0,0,1,.55-.694h1.57a.9.9,0,0,1,.838.694l.327,1.57A.547.547,0,0,1,147.216,242.25Z" transform="translate(-126.795 -219.416)" fill="#fc9a80"/>
          <g id="Grupo_156827" data-name="Grupo 156827" transform="translate(2.139 10.276)">
            <line id="Línea_451" data-name="Línea 451" x2="17.954" y2="7.651" fill="none" stroke="#463840" stroke-miterlimit="10" stroke-width="1"/>
            <line id="Línea_452" data-name="Línea 452" x1="14.769" y2="7.651" transform="translate(1.593)" fill="none" stroke="#463840" stroke-miterlimit="10" stroke-width="1"/>
          </g>
        </g>
      </g>
      <g id="Grupo_156832" data-name="Grupo 156832" transform="translate(215.808 83.995)">
        <g id="Grupo_156830" data-name="Grupo 156830" transform="translate(0 0)">
          <path id="Trazado_598975" data-name="Trazado 598975" d="M349.482,144.378l-17.74-11.32a.668.668,0,0,1-.145-1l14.75-16.924a.667.667,0,0,1,.862-.124l12.126,7.737a.667.667,0,0,1,.251.835l-9.135,20.507A.667.667,0,0,1,349.482,144.378Z" transform="translate(-331.433 -105.735)" fill="#2f3767"/>
          <rect id="Rectángulo_44644" data-name="Rectángulo 44644" width="1.648" height="15.064" transform="translate(29.248 0) rotate(32.542)" fill="#e5af70"/>
        </g>
        <path id="Trazado_598976" data-name="Trazado 598976" d="M410.4,140.874c0,.856-.52,1.549-1.161,1.549s-1.162-.694-1.162-1.549.52-1.549,1.162-1.549S410.4,140.019,410.4,140.874Z" transform="translate(-360.696 -115.059)" fill="#e5af70"/>
        <path id="Trazado_598977" data-name="Trazado 598977" d="M405.054,139.325c-.641,0-1.161.694-1.161,1.549s.52,1.549,1.161,1.549h2.586c-.642,0-1.162-.694-1.162-1.549s.52-1.549,1.162-1.549Z" transform="translate(-359.099 -115.059)" fill="#ffd994"/>
        <g id="Grupo_156831" data-name="Grupo 156831" transform="translate(25.149 5.963)">
          <path id="Trazado_598978" data-name="Trazado 598978" d="M394.735,128.021l-21.136-18.3-1.484,1.659L393.19,129.57s.4.255.69-.413C394.345,128.087,394.735,128.021,394.735,128.021Z" transform="translate(-372.115 -109.718)" fill="#e5af70"/>
          <path id="Trazado_598979" data-name="Trazado 598979" d="M398.426,143.976l-10.725,61.5,2.193.383,10.792-61.881s-.307-.71-1.539-.566A.737.737,0,0,0,398.426,143.976Z" transform="translate(-378.066 -122.575)" fill="#e5af70"/>
        </g>
        <rect id="Rectángulo_44645" data-name="Rectángulo 44645" width="30.005" height="3.188" transform="translate(21.599 88.863)" fill="#2f3767"/>
      </g>
      <g id="Grupo_156834" data-name="Grupo 156834" transform="translate(235.141 158.377)">
        <g id="Grupo_156833" data-name="Grupo 156833" transform="translate(0.815 0)">
          <rect id="Rectángulo_44646" data-name="Rectángulo 44646" width="0.872" height="17.436" transform="translate(0 0.186) rotate(-8.992)" fill="#2f3767"/>
          <rect id="Rectángulo_44647" data-name="Rectángulo 44647" width="0.872" height="17.436" transform="translate(2.711 0.044) rotate(-2.89)" fill="#2f3767"/>
          <rect id="Rectángulo_44648" data-name="Rectángulo 44648" width="0.872" height="15.977" transform="translate(8.288 1.457) rotate(3.761)" fill="#2f3767"/>
          <rect id="Rectángulo_44649" data-name="Rectángulo 44649" width="0.872" height="17.436" transform="translate(13.093 0.841) rotate(28.217)" fill="#2f3767"/>
        </g>
        <path id="Trazado_598980" data-name="Trazado 598980" d="M375.648,230H363.22a.513.513,0,0,1-.512-.513h0a.512.512,0,0,1,.512-.512h12.428a.512.512,0,0,1,.513.512h0A.513.513,0,0,1,375.648,230Z" transform="translate(-362.707 -223.669)" fill="#d67363"/>
        <path id="Trazado_598981" data-name="Trazado 598981" d="M375.964,230.629l-1.28,10.238a1.26,1.26,0,0,1-1.251,1.1h-7.367a1.262,1.262,0,0,1-1.251-1.1l-1.28-10.238Z" transform="translate(-363.024 -224.302)" fill="#ff6a66"/>
      </g>
      <g id="Grupo_156837" data-name="Grupo 156837" transform="translate(211.558 160.994)">
        <g id="Grupo_156835" data-name="Grupo 156835" transform="translate(3.927)">
          <path id="Trazado_598982" data-name="Trazado 598982" d="M341.829,224.627a1.293,1.293,0,0,1,1.293,1.293v3.885c0,3.071-1.817,3.948-2.084,8.673a1.265,1.265,0,0,1-1.259,1.2h-5.526a1.265,1.265,0,0,1-1.259-1.2c-.267-4.725-2.084-5.6-2.084-8.673V225.92a1.293,1.293,0,0,1,1.293-1.293Z" transform="translate(-330.911 -224.627)" fill="#ed6d2f"/>
        </g>
        <g id="Grupo_156836" data-name="Grupo 156836" transform="translate(0 0.917)">
          <path id="Trazado_598983" data-name="Trazado 598983" d="M327.665,231.669a3.11,3.11,0,0,1-3.107-3.106v-1.225a1.227,1.227,0,0,1,1.225-1.227h1.882a1.2,1.2,0,0,1,1.2,1.2.375.375,0,1,1-.751,0,.446.446,0,0,0-.445-.446h-1.882a.476.476,0,0,0-.475.476v1.225a2.359,2.359,0,0,0,2.357,2.357.446.446,0,0,0,.445-.446v-.944a.375.375,0,1,1,.751,0v.944A1.2,1.2,0,0,1,327.665,231.669Z" transform="translate(-324.558 -226.111)" fill="#ed6d2f"/>
        </g>
      </g>
      <g id="Grupo_156849" data-name="Grupo 156849" transform="translate(28.6 89.333)">
        <g id="Grupo_156848" data-name="Grupo 156848">
          <path id="Trazado_598984" data-name="Trazado 598984" d="M110.67,275.261c12.713-43.582-9.251-68.05-14.929-91.792a68.832,68.832,0,0,1,9.076-52.845" transform="translate(-53.543 -117.075)" fill="none" stroke="#216d55" stroke-miterlimit="10" stroke-width="2"/>
          <g id="Grupo_156838" data-name="Grupo 156838" transform="translate(43.927)">
            <path id="Trazado_598985" data-name="Trazado 598985" d="M122.459,109.436c-.066,7.756-15.971,12.463-20.08,24.077,1.264-3.559,4.408-18.677,13.51-23.671C117.949,108.66,120.4,108.208,122.459,109.436Z" transform="translate(-100.696 -108.707)" fill="#2f8468"/>
            <path id="Trazado_598986" data-name="Trazado 598986" d="M99.657,139.64c3.822-10.647,8.475-18.812,17.6-25.419" transform="translate(-99.657 -110.812)" fill="none" stroke="#216d55" stroke-linecap="round" stroke-miterlimit="10" stroke-width="2"/>
          </g>
          <g id="Grupo_156839" data-name="Grupo 156839" transform="translate(31.135 10.3)">
            <path id="Trazado_598987" data-name="Trazado 598987" d="M79.269,125.489c2.292-.518,4.369.693,5.9,2.422,6.986,7.759,4,22.7,3.736,26.047C89.908,141.511,76.829,132.88,79.269,125.489Z" transform="translate(-78.965 -125.369)" fill="#216d55"/>
            <path id="Trazado_598988" data-name="Trazado 598988" d="M90.72,160.34c.968-10.8-.18-19.811-6.442-28.744" transform="translate(-80.994 -127.746)" fill="none" stroke="#216d55" stroke-linecap="round" stroke-miterlimit="10" stroke-width="2"/>
          </g>
          <g id="Grupo_156840" data-name="Grupo 156840" transform="translate(40.687 12.695)">
            <path id="Trazado_598989" data-name="Trazado 598989" d="M125.043,130.669c-.955,12.01-25.074,17.23-29.75,36.484,1.047-4.28,4.341-28.965,19.676-36.473C118.246,129.037,122.026,128.513,125.043,130.669Z" transform="translate(-94.751 -129.243)" fill="#2f8468"/>
            <path id="Trazado_598990" data-name="Trazado 598990" d="M94.434,176.561c-.538-14.21,11.248-31.179,23.7-39.126" transform="translate(-94.416 -132.371)" fill="none" stroke="#216d55" stroke-linecap="round" stroke-miterlimit="10" stroke-width="2"/>
          </g>
          <g id="Grupo_156841" data-name="Grupo 156841" transform="translate(21.101 29.846)">
            <path id="Trazado_598991" data-name="Trazado 598991" d="M62.733,158.055c1.69-1.423,3.972-1.275,5.99-.427,8.564,3.492,10.975,14.671,12.72,21.114C78.392,167.4,63.854,165.072,62.733,158.055Z" transform="translate(-62.733 -156.987)" fill="#216d55"/>
            <path id="Trazado_598992" data-name="Trazado 598992" d="M84.667,184.278a30.665,30.665,0,0,0-15.361-22.542" transform="translate(-65.243 -158.8)" fill="none" stroke="#216d55" stroke-linecap="round" stroke-miterlimit="10" stroke-width="2"/>
          </g>
          <g id="Grupo_156842" data-name="Grupo 156842" transform="translate(0 44.384)">
            <path id="Trazado_598993" data-name="Trazado 598993" d="M28.6,186.753c2.483-7.983,14.973-7.675,23.994-2.685,10.708,5.854,15.016,15.11,19.156,23.366-3-6.04-10.557-12.333-22.485-14.629C40.515,191.107,33.319,192.046,28.6,186.753Z" transform="translate(-28.6 -180.504)" fill="#2f8468"/>
            <path id="Trazado_598994" data-name="Trazado 598994" d="M79.232,217.018c-6.9-18.88-21.478-28.044-37.846-27.852" transform="translate(-33.482 -183.81)" fill="none" stroke="#216d55" stroke-linecap="round" stroke-miterlimit="10" stroke-width="2"/>
          </g>
          <g id="Grupo_156843" data-name="Grupo 156843" transform="translate(47.24 42.344)">
            <path id="Trazado_598995" data-name="Trazado 598995" d="M122.063,177.7c1.556,10.234-17.852,20.829-15.888,38.367-.479-4.358-4.822-25.88,7.151-36.17C115.8,177.724,119,176.441,122.063,177.7Z" transform="translate(-105.017 -177.204)" fill="#2f8468"/>
            <path id="Trazado_598996" data-name="Trazado 598996" d="M107.931,225.123c-4.212-10.933-.538-28.854,9.675-39.768" transform="translate(-105.475 -180.316)" fill="none" stroke="#216d55" stroke-linecap="round" stroke-miterlimit="10" stroke-width="2"/>
          </g>
          <g id="Grupo_156844" data-name="Grupo 156844" transform="translate(53.79 70.247)">
            <path id="Trazado_598997" data-name="Trazado 598997" d="M125.967,222.485c2.225,7.3-10.746,15.883-9.068,28.3-.386-2.888-4.086-18.042,3.156-25.961C121.6,223.1,123.7,221.917,125.967,222.485Z" transform="translate(-115.613 -222.341)" fill="#216d55"/>
            <path id="Trazado_598998" data-name="Trazado 598998" d="M118.313,257.066a34.534,34.534,0,0,1,5.236-28.576" transform="translate(-116.217 -224.689)" fill="none" stroke="#216d55" stroke-linecap="round" stroke-miterlimit="10" stroke-width="2"/>
          </g>
          <g id="Grupo_156845" data-name="Grupo 156845" transform="translate(60.106 82.412)">
            <path id="Trazado_598999" data-name="Trazado 598999" d="M143.544,242.406c1.834,9.622-16.278,18.47-17.715,34.213.441-4.766-.165-23.758,9.836-32.166C137.911,242.533,140.733,241.371,143.544,242.406Z" transform="translate(-125.829 -242.019)" fill="#2f8468"/>
            <path id="Trazado_599000" data-name="Trazado 599000" d="M126.016,284.631A48.8,48.8,0,0,1,139.2,249.465" transform="translate(-125.896 -244.862)" fill="none" stroke="#216d55" stroke-linecap="round" stroke-miterlimit="10" stroke-width="2"/>
          </g>
          <g id="Grupo_156846" data-name="Grupo 156846" transform="translate(10.747 83.536)">
            <path id="Trazado_599001" data-name="Trazado 599001" d="M45.985,251.057c1.589-7.24,11.4-8.739,20.036-5.813,21.206,7.17,25.623,28.16,28.142,35.177C85.322,255.414,56.857,261.336,45.985,251.057Z" transform="translate(-45.985 -243.837)" fill="#216d55"/>
            <path id="Trazado_599002" data-name="Trazado 599002" d="M101.751,292.031c-1.37-18.432-18.846-37.009-40.47-38.2" transform="translate(-51.825 -247.654)" fill="none" stroke="#216d55" stroke-linecap="round" stroke-miterlimit="10" stroke-width="2"/>
          </g>
          <g id="Grupo_156847" data-name="Grupo 156847" transform="translate(8.909 67.31)">
            <path id="Trazado_599003" data-name="Trazado 599003" d="M43.011,223.218c2.857-7.821,15.067-6.437,22.925-2.215,10.6,5.635,15.41,14.88,19.445,21.335-4.552-7.328-13.96-11.385-22.516-12.937S47.267,228.486,43.011,223.218Z" transform="translate(-43.011 -217.589)" fill="#2f8468"/>
            <path id="Trazado_599004" data-name="Trazado 599004" d="M93.031,251.192A41.587,41.587,0,0,0,55.289,225.77" transform="translate(-47.699 -220.713)" fill="none" stroke="#216d55" stroke-linecap="round" stroke-miterlimit="10" stroke-width="2"/>
          </g>
        </g>
        <path id="Trazado_599005" data-name="Trazado 599005" d="M120.531,411.741H98.925a10.133,10.133,0,0,1-10.118-9.585l-3.216-59.52a4.863,4.863,0,0,1,4.856-5.125h38.563a4.864,4.864,0,0,1,4.856,5.125l-3.217,59.52A10.132,10.132,0,0,1,120.531,411.741Z" transform="translate(-50.357 -196.067)" fill="#8e3948"/>
      </g>
      <g id="Grupo_156858" data-name="Grupo 156858" transform="translate(216.461 230.777)">
        <g id="Grupo_156853" data-name="Grupo 156853" transform="translate(3.166 0)">
          <rect id="Rectángulo_44650" data-name="Rectángulo 44650" width="23.131" height="61.643" transform="translate(0 0)" fill="#e8e0e4"/>
          <g id="Grupo_156850" data-name="Grupo 156850" transform="translate(0 10.489)">
            <rect id="Rectángulo_44651" data-name="Rectángulo 44651" width="23.131" height="1.02" transform="translate(0 8.063)" fill="#463840"/>
            <rect id="Rectángulo_44652" data-name="Rectángulo 44652" width="23.131" height="1.02" fill="#463840"/>
            <rect id="Rectángulo_44653" data-name="Rectángulo 44653" width="23.131" height="1.02" transform="translate(0 16.127)" fill="#463840"/>
          </g>
          <g id="Grupo_156851" data-name="Grupo 156851" transform="translate(0 10.381)">
            <rect id="Rectángulo_44654" data-name="Rectángulo 44654" width="23.131" height="1.02" transform="translate(0 8.063)" fill="#f1f1f1"/>
            <rect id="Rectángulo_44655" data-name="Rectángulo 44655" width="23.131" height="1.02" fill="#f1f1f1"/>
            <rect id="Rectángulo_44656" data-name="Rectángulo 44656" width="23.131" height="1.02" transform="translate(0 16.127)" fill="#f1f1f1"/>
          </g>
          <circle id="Elipse_5492" data-name="Elipse 5492" cx="3.572" cy="3.572" r="3.572" transform="translate(8.513 46.049)" fill="#f1f1f1"/>
          <g id="Grupo_156852" data-name="Grupo 156852" transform="translate(8.868)">
            <rect id="Rectángulo_44657" data-name="Rectángulo 44657" width="1.039" height="2.096" transform="translate(2.178 0)" fill="#216d55"/>
            <rect id="Rectángulo_44658" data-name="Rectángulo 44658" width="1.039" height="2.096" transform="translate(4.356 0)" fill="#216d55"/>
            <rect id="Rectángulo_44659" data-name="Rectángulo 44659" width="1.039" height="2.096" transform="translate(1.039 2.096) rotate(180)" fill="#ed6d2f"/>
          </g>
          <rect id="Rectángulo_44660" data-name="Rectángulo 44660" width="3.14" height="0.919" transform="translate(1.445 24.634)" fill="#463840"/>
          <rect id="Rectángulo_44661" data-name="Rectángulo 44661" width="3.14" height="0.919" transform="translate(5.542 24.634)" fill="#463840"/>
          <rect id="Rectángulo_44662" data-name="Rectángulo 44662" width="3.14" height="0.919" transform="translate(9.639 24.634)" fill="#463840"/>
        </g>
        <g id="Grupo_156857" data-name="Grupo 156857" transform="translate(0 61.643)">
          <g id="Grupo_156856" data-name="Grupo 156856" transform="translate(0.157 2.985)">
            <g id="Grupo_156854" data-name="Grupo 156854" transform="translate(0 0)">
              <rect id="Rectángulo_44663" data-name="Rectángulo 44663" width="1.888" height="2.473" transform="translate(2.992)" fill="#33252f"/>
              <path id="Trazado_599006" data-name="Trazado 599006" d="M340.614,448.791a3.936,3.936,0,1,1-3.936-3.935A3.936,3.936,0,0,1,340.614,448.791Z" transform="translate(-332.743 -443.125)" fill="#33252f"/>
              <path id="Trazado_599007" data-name="Trazado 599007" d="M340.382,449.166a3.33,3.33,0,1,1-3.33-3.33A3.329,3.329,0,0,1,340.382,449.166Z" transform="translate(-333.117 -443.499)" fill="#e5af70"/>
            </g>
            <g id="Grupo_156855" data-name="Grupo 156855" transform="translate(21.279 0)">
              <rect id="Rectángulo_44664" data-name="Rectángulo 44664" width="1.888" height="2.473" transform="translate(4.879 2.473) rotate(180)" fill="#33252f"/>
              <path id="Trazado_599008" data-name="Trazado 599008" d="M367.165,448.791a3.935,3.935,0,1,0,3.935-3.935A3.935,3.935,0,0,0,367.165,448.791Z" transform="translate(-367.165 -443.125)" fill="#33252f"/>
              <path id="Trazado_599009" data-name="Trazado 599009" d="M368.145,449.166a3.33,3.33,0,1,0,3.33-3.33A3.329,3.329,0,0,0,368.145,449.166Z" transform="translate(-367.539 -443.499)" fill="#e5af70"/>
            </g>
          </g>
          <rect id="Rectángulo_44665" data-name="Rectángulo 44665" width="29.464" height="3.146" fill="#ffd994"/>
          <rect id="Rectángulo_44666" data-name="Rectángulo 44666" width="29.464" height="1.573" transform="translate(0 1.573)" fill="#e5af70"/>
        </g>
      </g>
    </g>
  </g>
</svg>
